<?xml version="1.0" encoding="utf-8" standalone="no"?>
<!DOCTYPE svg PUBLIC "-//W3C//DTD SVG 1.1//EN"
  "http://www.w3.org/Graphics/SVG/1.1/DTD/svg11.dtd">
<svg xmlns:xlink="http://www.w3.org/1999/xlink" width="784.8pt" height="316.775625pt" viewBox="0 0 784.8 316.775625" xmlns="http://www.w3.org/2000/svg" version="1.1">
 <metadata>
  <rdf:RDF xmlns:dc="http://purl.org/dc/elements/1.1/" xmlns:cc="http://creativecommons.org/ns#" xmlns:rdf="http://www.w3.org/1999/02/22-rdf-syntax-ns#">
   <cc:Work>
    <dc:type rdf:resource="http://purl.org/dc/dcmitype/StillImage"/>
    <dc:date>2026-08-23T21:01:07.315610</dc:date>
    <dc:format>image/svg+xml</dc:format>
    <dc:creator>
     <cc:Agent>
      <dc:title>Matplotlib v3.10.0, https://matplotlib.org/</dc:title>
     </cc:Agent>
    </dc:creator>
   </cc:Work>
  </rdf:RDF>
 </metadata>
 <defs>
  <style type="text/css">*{stroke-linejoin: round; stroke-linecap: butt}</style>
 </defs>
 <g id="figure_1">
  <g id="patch_1">
   <path d="M 0 316.775625 
L 784.8 316.775625 
L 784.8 0 
L 0 0 
z
" style="fill: #ffffff"/>
  </g>
  <g id="axes_1">
   <g id="patch_2">
    <path d="M 30.312 279.064625 
L 246.024 279.064625 
Q 257.58 279.064625 257.58 272.023625 
L 257.58 56.099625 
Q 257.58 49.058625 246.024 49.058625 
L 30.312 49.058625 
Q 18.756 49.058625 18.756 56.099625 
L 18.756 272.023625 
Q 18.756 279.064625 30.312 279.064625 
z
" clip-path="url(#p95d057f4b2)" style="fill: #eff6ff; stroke: #3b82f6; stroke-width: 2; stroke-linejoin: miter"/>
   </g>
   <g id="patch_3">
    <path d="M 45.72 172.510825 
L 230.616 172.510825 
Q 236.7792 172.510825 236.7792 168.755625 
L 236.7792 93.651625 
Q 236.7792 89.896425 230.616 89.896425 
L 45.72 89.896425 
Q 39.5568 89.896425 39.5568 93.651625 
L 39.5568 168.755625 
Q 39.5568 172.510825 45.72 172.510825 
z
" clip-path="url(#p95d057f4b2)" style="fill: #dbeafe; stroke: #2563eb; stroke-width: 1.2; stroke-linejoin: miter"/>
   </g>
   <g id="patch_4">
    <path d="M 45.72 261.696825 
L 230.616 261.696825 
Q 236.7792 261.696825 236.7792 257.941625 
L 236.7792 182.837625 
Q 236.7792 179.082425 230.616 179.082425 
L 45.72 179.082425 
Q 39.5568 179.082425 39.5568 182.837625 
L 39.5568 257.941625 
Q 39.5568 261.696825 45.72 261.696825 
z
" clip-path="url(#p95d057f4b2)" style="fill: #dcfce7; stroke: #16a34a; stroke-width: 1.2; stroke-linejoin: miter"/>
   </g>
   <g id="patch_5">
    <path d="M 292.248 279.064625 
L 523.368 279.064625 
Q 534.924 279.064625 534.924 272.023625 
L 534.924 56.099625 
Q 534.924 49.058625 523.368 49.058625 
L 292.248 49.058625 
Q 280.692 49.058625 280.692 56.099625 
L 280.692 272.023625 
Q 280.692 279.064625 292.248 279.064625 
z
" clip-path="url(#p95d057f4b2)" style="fill: #f3e8ff; stroke: #8b5cf6; stroke-width: 2; stroke-linejoin: miter"/>
   </g>
   <g id="patch_6">
    <path d="M 307.656 133.550625 
L 507.96 133.550625 
Q 511.812 133.550625 511.812 131.203625 
L 511.812 93.651625 
Q 511.812 91.304625 507.96 91.304625 
L 307.656 91.304625 
Q 303.804 91.304625 303.804 93.651625 
L 303.804 131.203625 
Q 303.804 133.550625 307.656 133.550625 
z
" clip-path="url(#p95d057f4b2)" style="fill: #ede9fe; stroke: #7c3aed; stroke-width: 1.2; stroke-linejoin: miter"/>
   </g>
   <g id="patch_7">
    <path d="M 307.656 185.184625 
L 507.96 185.184625 
Q 511.812 185.184625 511.812 182.837625 
L 511.812 145.285625 
Q 511.812 142.938625 507.96 142.938625 
L 307.656 142.938625 
Q 303.804 142.938625 303.804 145.285625 
L 303.804 182.837625 
Q 303.804 185.184625 307.656 185.184625 
z
" clip-path="url(#p95d057f4b2)" style="fill: #ede9fe; stroke: #7c3aed; stroke-width: 1.2; stroke-linejoin: miter"/>
   </g>
   <g id="patch_8">
    <path d="M 307.656 236.818625 
L 507.96 236.818625 
Q 511.812 236.818625 511.812 234.471625 
L 511.812 196.919625 
Q 511.812 194.572625 507.96 194.572625 
L 307.656 194.572625 
Q 303.804 194.572625 303.804 196.919625 
L 303.804 234.471625 
Q 303.804 236.818625 307.656 236.818625 
z
" clip-path="url(#p95d057f4b2)" style="fill: #ede9fe; stroke: #7c3aed; stroke-width: 1.2; stroke-linejoin: miter"/>
   </g>
   <g id="patch_9">
    <path d="M 569.592 279.064625 
L 754.488 279.064625 
Q 766.044 279.064625 766.044 272.023625 
L 766.044 56.099625 
Q 766.044 49.058625 754.488 49.058625 
L 569.592 49.058625 
Q 558.036 49.058625 558.036 56.099625 
L 558.036 272.023625 
Q 558.036 279.064625 569.592 279.064625 
z
" clip-path="url(#p95d057f4b2)" style="fill: #fef3c7; stroke: #d97706; stroke-width: 2; stroke-linejoin: miter"/>
   </g>
   <g id="patch_10">
    <path d="M 585 133.550625 
L 739.08 133.550625 
Q 742.932 133.550625 742.932 131.203625 
L 742.932 93.651625 
Q 742.932 91.304625 739.08 91.304625 
L 585 91.304625 
Q 581.148 91.304625 581.148 93.651625 
L 581.148 131.203625 
Q 581.148 133.550625 585 133.550625 
z
" clip-path="url(#p95d057f4b2)" style="fill: #fde68a; stroke: #b45309; stroke-linejoin: miter"/>
   </g>
   <g id="patch_11">
    <path d="M 585 185.184625 
L 739.08 185.184625 
Q 742.932 185.184625 742.932 182.837625 
L 742.932 145.285625 
Q 742.932 142.938625 739.08 142.938625 
L 585 142.938625 
Q 581.148 142.938625 581.148 145.285625 
L 581.148 182.837625 
Q 581.148 185.184625 585 185.184625 
z
" clip-path="url(#p95d057f4b2)" style="fill: #fde68a; stroke: #b45309; stroke-linejoin: miter"/>
   </g>
   <g id="patch_12">
    <path d="M 585 236.818625 
L 739.08 236.818625 
Q 742.932 236.818625 742.932 234.471625 
L 742.932 196.919625 
Q 742.932 194.572625 739.08 194.572625 
L 585 194.572625 
Q 581.148 194.572625 581.148 196.919625 
L 581.148 234.471625 
Q 581.148 236.818625 585 236.818625 
z
" clip-path="url(#p95d057f4b2)" style="fill: #fde68a; stroke: #b45309; stroke-linejoin: miter"/>
   </g>
   <g id="text_1">
    <!-- Dual Index Retrieval $\mathcal{R}$ -->
    <g style="fill: #1e3a8a" transform="translate(79.373 77.727031) scale(0.11 -0.11)">
     <defs>
      <path id="Arial-BoldMT-44" d="M 463 4581 
L 2153 4581 
Q 2725 4581 3025 4494 
Q 3428 4375 3715 4072 
Q 4003 3769 4153 3330 
Q 4303 2891 4303 2247 
Q 4303 1681 4163 1272 
Q 3991 772 3672 463 
Q 3431 228 3022 97 
Q 2716 0 2203 0 
L 463 0 
L 463 4581 
z
M 1388 3806 
L 1388 772 
L 2078 772 
Q 2466 772 2638 816 
Q 2863 872 3011 1006 
Q 3159 1141 3253 1448 
Q 3347 1756 3347 2288 
Q 3347 2819 3253 3103 
Q 3159 3388 2990 3547 
Q 2822 3706 2563 3763 
Q 2369 3806 1803 3806 
L 1388 3806 
z
" transform="scale(0.015625)"/>
      <path id="Arial-BoldMT-75" d="M 2644 0 
L 2644 497 
Q 2463 231 2167 78 
Q 1872 -75 1544 -75 
Q 1209 -75 943 72 
Q 678 219 559 484 
Q 441 750 441 1219 
L 441 3319 
L 1319 3319 
L 1319 1794 
Q 1319 1094 1367 936 
Q 1416 778 1544 686 
Q 1672 594 1869 594 
Q 2094 594 2272 717 
Q 2450 841 2515 1023 
Q 2581 1206 2581 1919 
L 2581 3319 
L 3459 3319 
L 3459 0 
L 2644 0 
z
" transform="scale(0.015625)"/>
      <path id="Arial-BoldMT-61" d="M 1116 2306 
L 319 2450 
Q 453 2931 781 3162 
Q 1109 3394 1756 3394 
Q 2344 3394 2631 3255 
Q 2919 3116 3036 2902 
Q 3153 2688 3153 2116 
L 3144 1091 
Q 3144 653 3186 445 
Q 3228 238 3344 0 
L 2475 0 
Q 2441 88 2391 259 
Q 2369 338 2359 363 
Q 2134 144 1878 34 
Q 1622 -75 1331 -75 
Q 819 -75 523 203 
Q 228 481 228 906 
Q 228 1188 362 1408 
Q 497 1628 739 1745 
Q 981 1863 1438 1950 
Q 2053 2066 2291 2166 
L 2291 2253 
Q 2291 2506 2166 2614 
Q 2041 2722 1694 2722 
Q 1459 2722 1328 2630 
Q 1197 2538 1116 2306 
z
M 2291 1594 
Q 2122 1538 1756 1459 
Q 1391 1381 1278 1306 
Q 1106 1184 1106 997 
Q 1106 813 1243 678 
Q 1381 544 1594 544 
Q 1831 544 2047 700 
Q 2206 819 2256 991 
Q 2291 1103 2291 1419 
L 2291 1594 
z
" transform="scale(0.015625)"/>
      <path id="Arial-BoldMT-6c" d="M 459 0 
L 459 4581 
L 1338 4581 
L 1338 0 
L 459 0 
z
" transform="scale(0.015625)"/>
      <path id="Arial-BoldMT-20" transform="scale(0.015625)"/>
      <path id="Arial-BoldMT-49" d="M 438 0 
L 438 4581 
L 1363 4581 
L 1363 0 
L 438 0 
z
" transform="scale(0.015625)"/>
      <path id="Arial-BoldMT-6e" d="M 3478 0 
L 2600 0 
L 2600 1694 
Q 2600 2231 2544 2389 
Q 2488 2547 2361 2634 
Q 2234 2722 2056 2722 
Q 1828 2722 1647 2597 
Q 1466 2472 1398 2265 
Q 1331 2059 1331 1503 
L 1331 0 
L 453 0 
L 453 3319 
L 1269 3319 
L 1269 2831 
Q 1703 3394 2363 3394 
Q 2653 3394 2893 3289 
Q 3134 3184 3257 3021 
Q 3381 2859 3429 2653 
Q 3478 2447 3478 2063 
L 3478 0 
z
" transform="scale(0.015625)"/>
      <path id="Arial-BoldMT-64" d="M 3503 0 
L 2688 0 
L 2688 488 
Q 2484 203 2207 64 
Q 1931 -75 1650 -75 
Q 1078 -75 670 386 
Q 263 847 263 1672 
Q 263 2516 659 2955 
Q 1056 3394 1663 3394 
Q 2219 3394 2625 2931 
L 2625 4581 
L 3503 4581 
L 3503 0 
z
M 1159 1731 
Q 1159 1200 1306 963 
Q 1519 619 1900 619 
Q 2203 619 2415 876 
Q 2628 1134 2628 1647 
Q 2628 2219 2422 2470 
Q 2216 2722 1894 2722 
Q 1581 2722 1370 2473 
Q 1159 2225 1159 1731 
z
" transform="scale(0.015625)"/>
      <path id="Arial-BoldMT-65" d="M 2381 1056 
L 3256 909 
Q 3088 428 2723 176 
Q 2359 -75 1813 -75 
Q 947 -75 531 491 
Q 203 944 203 1634 
Q 203 2459 634 2926 
Q 1066 3394 1725 3394 
Q 2466 3394 2894 2905 
Q 3322 2416 3303 1406 
L 1103 1406 
Q 1113 1016 1316 798 
Q 1519 581 1822 581 
Q 2028 581 2168 693 
Q 2309 806 2381 1056 
z
M 2431 1944 
Q 2422 2325 2234 2523 
Q 2047 2722 1778 2722 
Q 1491 2722 1303 2513 
Q 1116 2303 1119 1944 
L 2431 1944 
z
" transform="scale(0.015625)"/>
      <path id="Arial-BoldMT-78" d="M 38 0 
L 1234 1709 
L 88 3319 
L 1159 3319 
L 1747 2406 
L 2366 3319 
L 3397 3319 
L 2272 1747 
L 3500 0 
L 2422 0 
L 1747 1028 
L 1066 0 
L 38 0 
z
" transform="scale(0.015625)"/>
      <path id="Arial-BoldMT-52" d="M 469 0 
L 469 4581 
L 2416 4581 
Q 3150 4581 3483 4457 
Q 3816 4334 4016 4018 
Q 4216 3703 4216 3297 
Q 4216 2781 3912 2445 
Q 3609 2109 3006 2022 
Q 3306 1847 3501 1637 
Q 3697 1428 4028 894 
L 4588 0 
L 3481 0 
L 2813 997 
Q 2456 1531 2325 1670 
Q 2194 1809 2047 1861 
Q 1900 1913 1581 1913 
L 1394 1913 
L 1394 0 
L 469 0 
z
M 1394 2644 
L 2078 2644 
Q 2744 2644 2909 2700 
Q 3075 2756 3169 2893 
Q 3263 3031 3263 3238 
Q 3263 3469 3139 3611 
Q 3016 3753 2791 3791 
Q 2678 3806 2116 3806 
L 1394 3806 
L 1394 2644 
z
" transform="scale(0.015625)"/>
      <path id="Arial-BoldMT-74" d="M 1981 3319 
L 1981 2619 
L 1381 2619 
L 1381 1281 
Q 1381 875 1398 808 
Q 1416 741 1477 697 
Q 1538 653 1625 653 
Q 1747 653 1978 738 
L 2053 56 
Q 1747 -75 1359 -75 
Q 1122 -75 931 4 
Q 741 84 652 211 
Q 563 338 528 553 
Q 500 706 500 1172 
L 500 2619 
L 97 2619 
L 97 3319 
L 500 3319 
L 500 3978 
L 1381 4491 
L 1381 3319 
L 1981 3319 
z
" transform="scale(0.015625)"/>
      <path id="Arial-BoldMT-72" d="M 1300 0 
L 422 0 
L 422 3319 
L 1238 3319 
L 1238 2847 
Q 1447 3181 1614 3287 
Q 1781 3394 1994 3394 
Q 2294 3394 2572 3228 
L 2300 2463 
Q 2078 2606 1888 2606 
Q 1703 2606 1575 2504 
Q 1447 2403 1373 2137 
Q 1300 1872 1300 1025 
L 1300 0 
z
" transform="scale(0.015625)"/>
      <path id="Arial-BoldMT-69" d="M 459 3769 
L 459 4581 
L 1338 4581 
L 1338 3769 
L 459 3769 
z
M 459 0 
L 459 3319 
L 1338 3319 
L 1338 0 
L 459 0 
z
" transform="scale(0.015625)"/>
      <path id="Arial-BoldMT-76" d="M 1372 0 
L 34 3319 
L 956 3319 
L 1581 1625 
L 1763 1059 
Q 1834 1275 1853 1344 
Q 1897 1484 1947 1625 
L 2578 3319 
L 3481 3319 
L 2163 0 
L 1372 0 
z
" transform="scale(0.015625)"/>
      <path id="Cmsy10-52" d="M 738 -91 
Q 738 -78 744 -56 
Q 966 475 1128 959 
Q 1291 1444 1428 1991 
Q 1678 2959 1766 3994 
Q 1425 3994 1094 3872 
Q 922 3803 833 3695 
Q 744 3588 684 3397 
Q 622 3291 472 3197 
Q 322 3103 206 3103 
L 166 3103 
Q 122 3131 122 3169 
Q 234 3556 581 3828 
Q 928 4100 1387 4236 
Q 1847 4372 2259 4372 
L 2931 4372 
Q 3378 4372 3739 4331 
Q 4100 4291 4392 4112 
Q 4684 3934 4684 3572 
Q 4684 3281 4548 3014 
Q 4413 2747 4189 2533 
Q 3966 2319 3697 2158 
Q 3428 1997 3156 1900 
Q 3253 1784 3383 1501 
Q 3513 1219 3659 911 
Q 3806 603 3951 420 
Q 4097 238 4256 238 
Q 4444 238 4551 308 
Q 4659 378 4775 520 
Q 4891 663 4997 745 
Q 5103 828 5281 844 
L 5319 844 
Q 5363 822 5363 794 
Q 5363 784 5356 768 
Q 5350 753 5344 738 
Q 5188 503 4936 297 
Q 4684 91 4393 -25 
Q 4103 -141 3828 -141 
L 3788 -141 
Q 3541 -141 3372 98 
Q 3203 338 3003 811 
Q 2803 1284 2651 1515 
Q 2500 1747 2278 1747 
Q 2266 1753 2250 1765 
Q 2234 1778 2234 1797 
Q 2234 1900 2420 2006 
Q 2606 2113 2719 2125 
Q 3072 2125 3395 2262 
Q 3719 2400 3917 2667 
Q 4116 2934 4116 3291 
Q 4116 3613 3833 3767 
Q 3550 3922 3203 3958 
Q 2856 3994 2450 3994 
L 2309 3994 
Q 2209 3041 1954 2070 
Q 1700 1100 1300 153 
Q 1238 41 1092 -43 
Q 947 -128 813 -141 
L 781 -141 
Q 769 -134 753 -121 
Q 738 -109 738 -91 
z
" transform="scale(0.015625)"/>
     </defs>
     <use xlink:href="#Arial-BoldMT-44" transform="translate(0 0.421875)"/>
     <use xlink:href="#Arial-BoldMT-75" transform="translate(72.216797 0.421875)"/>
     <use xlink:href="#Arial-BoldMT-61" transform="translate(133.300781 0.421875)"/>
     <use xlink:href="#Arial-BoldMT-6c" transform="translate(188.916016 0.421875)"/>
     <use xlink:href="#Arial-BoldMT-20" transform="translate(216.699219 0.421875)"/>
     <use xlink:href="#Arial-BoldMT-49" transform="translate(244.482422 0.421875)"/>
     <use xlink:href="#Arial-BoldMT-6e" transform="translate(272.265625 0.421875)"/>
     <use xlink:href="#Arial-BoldMT-64" transform="translate(333.349609 0.421875)"/>
     <use xlink:href="#Arial-BoldMT-65" transform="translate(394.433594 0.421875)"/>
     <use xlink:href="#Arial-BoldMT-78" transform="translate(450.048828 0.421875)"/>
     <use xlink:href="#Arial-BoldMT-20" transform="translate(505.664062 0.421875)"/>
     <use xlink:href="#Arial-BoldMT-52" transform="translate(533.447266 0.421875)"/>
     <use xlink:href="#Arial-BoldMT-65" transform="translate(605.664062 0.421875)"/>
     <use xlink:href="#Arial-BoldMT-74" transform="translate(661.279297 0.421875)"/>
     <use xlink:href="#Arial-BoldMT-72" transform="translate(694.580078 0.421875)"/>
     <use xlink:href="#Arial-BoldMT-69" transform="translate(733.496094 0.421875)"/>
     <use xlink:href="#Arial-BoldMT-65" transform="translate(761.279297 0.421875)"/>
     <use xlink:href="#Arial-BoldMT-76" transform="translate(816.894531 0.421875)"/>
     <use xlink:href="#Arial-BoldMT-61" transform="translate(872.509766 0.421875)"/>
     <use xlink:href="#Arial-BoldMT-6c" transform="translate(928.125 0.421875)"/>
     <use xlink:href="#Arial-BoldMT-20" transform="translate(955.908203 0.421875)"/>
     <use xlink:href="#Cmsy10-52" transform="translate(983.691406 0.421875)"/>
    </g>
   </g>
   <g id="text_2">
    <!-- Dense FAISS Index $\mathcal{I}_{\mathrm{dense}}$ -->
    <g style="fill: #1e40af" transform="translate(89.7605 119.517836) scale(0.085 -0.085)">
     <defs>
      <path id="ArialMT-44" d="M 494 0 
L 494 4581 
L 2072 4581 
Q 2606 4581 2888 4516 
Q 3281 4425 3559 4188 
Q 3922 3881 4101 3404 
Q 4281 2928 4281 2316 
Q 4281 1794 4159 1391 
Q 4038 988 3847 723 
Q 3656 459 3429 307 
Q 3203 156 2883 78 
Q 2563 0 2147 0 
L 494 0 
z
M 1100 541 
L 2078 541 
Q 2531 541 2789 625 
Q 3047 709 3200 863 
Q 3416 1078 3536 1442 
Q 3656 1806 3656 2325 
Q 3656 3044 3420 3430 
Q 3184 3816 2847 3947 
Q 2603 4041 2063 4041 
L 1100 4041 
L 1100 541 
z
" transform="scale(0.015625)"/>
      <path id="ArialMT-65" d="M 2694 1069 
L 3275 997 
Q 3138 488 2766 206 
Q 2394 -75 1816 -75 
Q 1088 -75 661 373 
Q 234 822 234 1631 
Q 234 2469 665 2931 
Q 1097 3394 1784 3394 
Q 2450 3394 2872 2941 
Q 3294 2488 3294 1666 
Q 3294 1616 3291 1516 
L 816 1516 
Q 847 969 1125 678 
Q 1403 388 1819 388 
Q 2128 388 2347 550 
Q 2566 713 2694 1069 
z
M 847 1978 
L 2700 1978 
Q 2663 2397 2488 2606 
Q 2219 2931 1791 2931 
Q 1403 2931 1139 2672 
Q 875 2413 847 1978 
z
" transform="scale(0.015625)"/>
      <path id="ArialMT-6e" d="M 422 0 
L 422 3319 
L 928 3319 
L 928 2847 
Q 1294 3394 1984 3394 
Q 2284 3394 2536 3286 
Q 2788 3178 2913 3003 
Q 3038 2828 3088 2588 
Q 3119 2431 3119 2041 
L 3119 0 
L 2556 0 
L 2556 2019 
Q 2556 2363 2490 2533 
Q 2425 2703 2258 2804 
Q 2091 2906 1866 2906 
Q 1506 2906 1245 2678 
Q 984 2450 984 1813 
L 984 0 
L 422 0 
z
" transform="scale(0.015625)"/>
      <path id="ArialMT-73" d="M 197 991 
L 753 1078 
Q 800 744 1014 566 
Q 1228 388 1613 388 
Q 2000 388 2187 545 
Q 2375 703 2375 916 
Q 2375 1106 2209 1216 
Q 2094 1291 1634 1406 
Q 1016 1563 777 1677 
Q 538 1791 414 1992 
Q 291 2194 291 2438 
Q 291 2659 392 2848 
Q 494 3038 669 3163 
Q 800 3259 1026 3326 
Q 1253 3394 1513 3394 
Q 1903 3394 2198 3281 
Q 2494 3169 2634 2976 
Q 2775 2784 2828 2463 
L 2278 2388 
Q 2241 2644 2061 2787 
Q 1881 2931 1553 2931 
Q 1166 2931 1000 2803 
Q 834 2675 834 2503 
Q 834 2394 903 2306 
Q 972 2216 1119 2156 
Q 1203 2125 1616 2013 
Q 2213 1853 2448 1751 
Q 2684 1650 2818 1456 
Q 2953 1263 2953 975 
Q 2953 694 2789 445 
Q 2625 197 2315 61 
Q 2006 -75 1616 -75 
Q 969 -75 630 194 
Q 291 463 197 991 
z
" transform="scale(0.015625)"/>
      <path id="ArialMT-20" transform="scale(0.015625)"/>
      <path id="ArialMT-46" d="M 525 0 
L 525 4581 
L 3616 4581 
L 3616 4041 
L 1131 4041 
L 1131 2622 
L 3281 2622 
L 3281 2081 
L 1131 2081 
L 1131 0 
L 525 0 
z
" transform="scale(0.015625)"/>
      <path id="ArialMT-41" d="M -9 0 
L 1750 4581 
L 2403 4581 
L 4278 0 
L 3588 0 
L 3053 1388 
L 1138 1388 
L 634 0 
L -9 0 
z
M 1313 1881 
L 2866 1881 
L 2388 3150 
Q 2169 3728 2063 4100 
Q 1975 3659 1816 3225 
L 1313 1881 
z
" transform="scale(0.015625)"/>
      <path id="ArialMT-49" d="M 597 0 
L 597 4581 
L 1203 4581 
L 1203 0 
L 597 0 
z
" transform="scale(0.015625)"/>
      <path id="ArialMT-53" d="M 288 1472 
L 859 1522 
Q 900 1178 1048 958 
Q 1197 738 1509 602 
Q 1822 466 2213 466 
Q 2559 466 2825 569 
Q 3091 672 3220 851 
Q 3350 1031 3350 1244 
Q 3350 1459 3225 1620 
Q 3100 1781 2813 1891 
Q 2628 1963 1997 2114 
Q 1366 2266 1113 2400 
Q 784 2572 623 2826 
Q 463 3081 463 3397 
Q 463 3744 659 4045 
Q 856 4347 1234 4503 
Q 1613 4659 2075 4659 
Q 2584 4659 2973 4495 
Q 3363 4331 3572 4012 
Q 3781 3694 3797 3291 
L 3216 3247 
Q 3169 3681 2898 3903 
Q 2628 4125 2100 4125 
Q 1550 4125 1298 3923 
Q 1047 3722 1047 3438 
Q 1047 3191 1225 3031 
Q 1400 2872 2139 2705 
Q 2878 2538 3153 2413 
Q 3553 2228 3743 1945 
Q 3934 1663 3934 1294 
Q 3934 928 3725 604 
Q 3516 281 3123 101 
Q 2731 -78 2241 -78 
Q 1619 -78 1198 103 
Q 778 284 539 648 
Q 300 1013 288 1472 
z
" transform="scale(0.015625)"/>
      <path id="ArialMT-64" d="M 2575 0 
L 2575 419 
Q 2259 -75 1647 -75 
Q 1250 -75 917 144 
Q 584 363 401 755 
Q 219 1147 219 1656 
Q 219 2153 384 2558 
Q 550 2963 881 3178 
Q 1213 3394 1622 3394 
Q 1922 3394 2156 3267 
Q 2391 3141 2538 2938 
L 2538 4581 
L 3097 4581 
L 3097 0 
L 2575 0 
z
M 797 1656 
Q 797 1019 1065 703 
Q 1334 388 1700 388 
Q 2069 388 2326 689 
Q 2584 991 2584 1609 
Q 2584 2291 2321 2609 
Q 2059 2928 1675 2928 
Q 1300 2928 1048 2622 
Q 797 2316 797 1656 
z
" transform="scale(0.015625)"/>
      <path id="ArialMT-78" d="M 47 0 
L 1259 1725 
L 138 3319 
L 841 3319 
L 1350 2541 
Q 1494 2319 1581 2169 
Q 1719 2375 1834 2534 
L 2394 3319 
L 3066 3319 
L 1919 1756 
L 3153 0 
L 2463 0 
L 1781 1031 
L 1600 1309 
L 728 0 
L 47 0 
z
" transform="scale(0.015625)"/>
      <path id="Cmsy10-49" d="M -122 0 
Q -134 6 -150 18 
Q -166 31 -166 50 
Q -166 153 20 259 
Q 206 366 319 378 
L 897 378 
Q 994 378 1045 436 
Q 1097 494 1172 622 
Q 1347 913 1503 1472 
Q 1538 1578 1575 1733 
Q 1613 1888 1656 2059 
Q 1725 2338 1790 2586 
Q 1856 2834 1951 3107 
Q 2047 3381 2170 3606 
Q 2294 3831 2450 3994 
L 2059 3994 
Q 1672 3994 1409 3975 
Q 1147 3956 903 3878 
Q 831 3844 779 3712 
Q 728 3581 722 3572 
Q 638 3463 509 3392 
Q 381 3322 256 3309 
L 225 3309 
Q 178 3331 178 3366 
Q 334 3944 1131 4225 
Q 1409 4313 1732 4342 
Q 2056 4372 2472 4372 
L 4038 4372 
Q 4084 4347 4084 4319 
Q 4084 4219 3896 4112 
Q 3709 4006 3591 3994 
L 2834 3994 
Q 2641 3756 2520 3378 
Q 2400 3000 2228 2316 
Q 2147 1969 2084 1737 
Q 2022 1506 1930 1257 
Q 1838 1009 1695 775 
Q 1553 541 1369 378 
L 2625 378 
Q 2741 378 2869 416 
Q 2881 419 2914 498 
Q 2947 578 2950 581 
Q 3025 681 3154 756 
Q 3284 831 3413 844 
L 3450 844 
Q 3494 816 3494 781 
Q 3431 559 3217 378 
Q 3003 197 2726 98 
Q 2450 0 2216 0 
L -122 0 
z
" transform="scale(0.015625)"/>
      <path id="Cmr10-64" d="M 1563 -72 
Q 1184 -72 871 133 
Q 559 338 386 672 
Q 213 1006 213 1381 
Q 213 1769 402 2101 
Q 591 2434 916 2631 
Q 1241 2828 1631 2828 
Q 1866 2828 2075 2729 
Q 2284 2631 2438 2456 
L 2438 3788 
Q 2438 3959 2386 4036 
Q 2334 4113 2239 4130 
Q 2144 4147 1941 4147 
L 1941 4372 
L 2888 4441 
L 2888 581 
Q 2888 413 2939 336 
Q 2991 259 3086 242 
Q 3181 225 3384 225 
L 3384 0 
L 2419 -72 
L 2419 331 
Q 2253 141 2025 34 
Q 1797 -72 1563 -72 
z
M 909 556 
Q 1019 347 1201 222 
Q 1384 97 1600 97 
Q 1866 97 2087 250 
Q 2309 403 2419 647 
L 2419 2181 
Q 2344 2322 2230 2433 
Q 2116 2544 1973 2603 
Q 1831 2663 1672 2663 
Q 1338 2663 1134 2473 
Q 931 2284 850 1990 
Q 769 1697 769 1375 
Q 769 1119 795 928 
Q 822 738 909 556 
z
" transform="scale(0.015625)"/>
      <path id="Cmr10-65" d="M 1594 -72 
Q 1203 -72 876 133 
Q 550 338 364 680 
Q 178 1022 178 1403 
Q 178 1778 348 2115 
Q 519 2453 823 2661 
Q 1128 2869 1503 2869 
Q 1797 2869 2014 2770 
Q 2231 2672 2372 2497 
Q 2513 2322 2584 2084 
Q 2656 1847 2656 1563 
Q 2656 1478 2591 1478 
L 738 1478 
L 738 1409 
Q 738 878 952 497 
Q 1166 116 1650 116 
Q 1847 116 2014 203 
Q 2181 291 2304 447 
Q 2428 603 2472 781 
Q 2478 803 2495 820 
Q 2513 838 2534 838 
L 2591 838 
Q 2656 838 2656 756 
Q 2566 394 2266 161 
Q 1966 -72 1594 -72 
z
M 744 1638 
L 2203 1638 
Q 2203 1878 2136 2125 
Q 2069 2372 1912 2536 
Q 1756 2700 1503 2700 
Q 1141 2700 942 2361 
Q 744 2022 744 1638 
z
" transform="scale(0.015625)"/>
      <path id="Cmr10-6e" d="M 191 0 
L 191 225 
Q 409 225 550 259 
Q 691 294 691 428 
L 691 2175 
Q 691 2347 639 2423 
Q 588 2500 491 2517 
Q 394 2534 191 2534 
L 191 2759 
L 1119 2828 
L 1119 2203 
Q 1247 2478 1498 2653 
Q 1750 2828 2047 2828 
Q 2491 2828 2714 2615 
Q 2938 2403 2938 1966 
L 2938 428 
Q 2938 294 3078 259 
Q 3219 225 3438 225 
L 3438 0 
L 1972 0 
L 1972 225 
Q 2191 225 2331 259 
Q 2472 294 2472 428 
L 2472 1947 
Q 2472 2259 2381 2461 
Q 2291 2663 2009 2663 
Q 1638 2663 1398 2366 
Q 1159 2069 1159 1691 
L 1159 428 
Q 1159 294 1300 259 
Q 1441 225 1656 225 
L 1656 0 
L 191 0 
z
" transform="scale(0.015625)"/>
      <path id="Cmr10-73" d="M 213 -19 
L 213 1025 
Q 213 1075 269 1075 
L 347 1075 
Q 384 1075 397 1025 
Q 575 97 1259 97 
Q 1563 97 1767 234 
Q 1972 372 1972 659 
Q 1972 866 1812 1011 
Q 1653 1156 1434 1209 
L 1006 1294 
Q 791 1341 614 1437 
Q 438 1534 325 1695 
Q 213 1856 213 2069 
Q 213 2350 361 2529 
Q 509 2709 746 2789 
Q 984 2869 1259 2869 
Q 1588 2869 1831 2694 
L 2016 2853 
Q 2016 2869 2047 2869 
L 2094 2869 
Q 2113 2869 2128 2851 
Q 2144 2834 2144 2816 
L 2144 1978 
Q 2144 1919 2094 1919 
L 2016 1919 
Q 1959 1919 1959 1978 
Q 1959 2313 1773 2516 
Q 1588 2719 1253 2719 
Q 966 2719 755 2612 
Q 544 2506 544 2247 
Q 544 2069 695 1955 
Q 847 1841 1050 1791 
L 1484 1709 
Q 1703 1659 1892 1540 
Q 2081 1422 2192 1240 
Q 2303 1059 2303 831 
Q 2303 600 2223 429 
Q 2144 259 2001 146 
Q 1859 34 1665 -19 
Q 1472 -72 1259 -72 
Q 859 -72 575 197 
L 341 -56 
Q 341 -72 306 -72 
L 269 -72 
Q 213 -72 213 -19 
z
" transform="scale(0.015625)"/>
     </defs>
     <use xlink:href="#ArialMT-44" transform="translate(0 0.203125)"/>
     <use xlink:href="#ArialMT-65" transform="translate(72.216797 0.203125)"/>
     <use xlink:href="#ArialMT-6e" transform="translate(127.832031 0.203125)"/>
     <use xlink:href="#ArialMT-73" transform="translate(183.447266 0.203125)"/>
     <use xlink:href="#ArialMT-65" transform="translate(233.447266 0.203125)"/>
     <use xlink:href="#ArialMT-20" transform="translate(289.0625 0.203125)"/>
     <use xlink:href="#ArialMT-46" transform="translate(316.845703 0.203125)"/>
     <use xlink:href="#ArialMT-41" transform="translate(377.929688 0.203125)"/>
     <use xlink:href="#ArialMT-49" transform="translate(444.628906 0.203125)"/>
     <use xlink:href="#ArialMT-53" transform="translate(472.412109 0.203125)"/>
     <use xlink:href="#ArialMT-53" transform="translate(539.111328 0.203125)"/>
     <use xlink:href="#ArialMT-20" transform="translate(605.810547 0.203125)"/>
     <use xlink:href="#ArialMT-49" transform="translate(633.59375 0.203125)"/>
     <use xlink:href="#ArialMT-6e" transform="translate(661.376953 0.203125)"/>
     <use xlink:href="#ArialMT-64" transform="translate(716.992188 0.203125)"/>
     <use xlink:href="#ArialMT-65" transform="translate(772.607422 0.203125)"/>
     <use xlink:href="#ArialMT-78" transform="translate(828.222656 0.203125)"/>
     <use xlink:href="#ArialMT-20" transform="translate(878.222656 0.203125)"/>
     <use xlink:href="#Cmsy10-49" transform="translate(906.005859 0.203125)"/>
     <use xlink:href="#Cmr10-64" transform="translate(964.864531 -16.803125) scale(0.7)"/>
     <use xlink:href="#Cmr10-65" transform="translate(1003.726836 -16.803125) scale(0.7)"/>
     <use xlink:href="#Cmr10-6e" transform="translate(1034.796172 -16.803125) scale(0.7)"/>
     <use xlink:href="#Cmr10-73" transform="translate(1073.658477 -16.803125) scale(0.7)"/>
     <use xlink:href="#Cmr10-65" transform="translate(1101.241484 -16.803125) scale(0.7)"/>
    </g>
    <!-- 384-d Cosine Metric -->
    <g style="fill: #1e40af" transform="translate(100.140461 128.50818) scale(0.085 -0.085)">
     <defs>
      <path id="ArialMT-33" d="M 269 1209 
L 831 1284 
Q 928 806 1161 595 
Q 1394 384 1728 384 
Q 2125 384 2398 659 
Q 2672 934 2672 1341 
Q 2672 1728 2419 1979 
Q 2166 2231 1775 2231 
Q 1616 2231 1378 2169 
L 1441 2663 
Q 1497 2656 1531 2656 
Q 1891 2656 2178 2843 
Q 2466 3031 2466 3422 
Q 2466 3731 2256 3934 
Q 2047 4138 1716 4138 
Q 1388 4138 1169 3931 
Q 950 3725 888 3313 
L 325 3413 
Q 428 3978 793 4289 
Q 1159 4600 1703 4600 
Q 2078 4600 2393 4439 
Q 2709 4278 2876 4000 
Q 3044 3722 3044 3409 
Q 3044 3113 2884 2869 
Q 2725 2625 2413 2481 
Q 2819 2388 3044 2092 
Q 3269 1797 3269 1353 
Q 3269 753 2831 336 
Q 2394 -81 1725 -81 
Q 1122 -81 723 278 
Q 325 638 269 1209 
z
" transform="scale(0.015625)"/>
      <path id="ArialMT-38" d="M 1131 2484 
Q 781 2613 612 2850 
Q 444 3088 444 3419 
Q 444 3919 803 4259 
Q 1163 4600 1759 4600 
Q 2359 4600 2725 4251 
Q 3091 3903 3091 3403 
Q 3091 3084 2923 2848 
Q 2756 2613 2416 2484 
Q 2838 2347 3058 2040 
Q 3278 1734 3278 1309 
Q 3278 722 2862 322 
Q 2447 -78 1769 -78 
Q 1091 -78 675 323 
Q 259 725 259 1325 
Q 259 1772 486 2073 
Q 713 2375 1131 2484 
z
M 1019 3438 
Q 1019 3113 1228 2906 
Q 1438 2700 1772 2700 
Q 2097 2700 2305 2904 
Q 2513 3109 2513 3406 
Q 2513 3716 2298 3927 
Q 2084 4138 1766 4138 
Q 1444 4138 1231 3931 
Q 1019 3725 1019 3438 
z
M 838 1322 
Q 838 1081 952 856 
Q 1066 631 1291 507 
Q 1516 384 1775 384 
Q 2178 384 2440 643 
Q 2703 903 2703 1303 
Q 2703 1709 2433 1975 
Q 2163 2241 1756 2241 
Q 1359 2241 1098 1978 
Q 838 1716 838 1322 
z
" transform="scale(0.015625)"/>
      <path id="ArialMT-34" d="M 2069 0 
L 2069 1097 
L 81 1097 
L 81 1613 
L 2172 4581 
L 2631 4581 
L 2631 1613 
L 3250 1613 
L 3250 1097 
L 2631 1097 
L 2631 0 
L 2069 0 
z
M 2069 1613 
L 2069 3678 
L 634 1613 
L 2069 1613 
z
" transform="scale(0.015625)"/>
      <path id="ArialMT-2d" d="M 203 1375 
L 203 1941 
L 1931 1941 
L 1931 1375 
L 203 1375 
z
" transform="scale(0.015625)"/>
      <path id="ArialMT-43" d="M 3763 1606 
L 4369 1453 
Q 4178 706 3683 314 
Q 3188 -78 2472 -78 
Q 1731 -78 1267 223 
Q 803 525 561 1097 
Q 319 1669 319 2325 
Q 319 3041 592 3573 
Q 866 4106 1370 4382 
Q 1875 4659 2481 4659 
Q 3169 4659 3637 4309 
Q 4106 3959 4291 3325 
L 3694 3184 
Q 3534 3684 3231 3912 
Q 2928 4141 2469 4141 
Q 1941 4141 1586 3887 
Q 1231 3634 1087 3207 
Q 944 2781 944 2328 
Q 944 1744 1114 1308 
Q 1284 872 1643 656 
Q 2003 441 2422 441 
Q 2931 441 3284 734 
Q 3638 1028 3763 1606 
z
" transform="scale(0.015625)"/>
      <path id="ArialMT-6f" d="M 213 1659 
Q 213 2581 725 3025 
Q 1153 3394 1769 3394 
Q 2453 3394 2887 2945 
Q 3322 2497 3322 1706 
Q 3322 1066 3130 698 
Q 2938 331 2570 128 
Q 2203 -75 1769 -75 
Q 1072 -75 642 372 
Q 213 819 213 1659 
z
M 791 1659 
Q 791 1022 1069 705 
Q 1347 388 1769 388 
Q 2188 388 2466 706 
Q 2744 1025 2744 1678 
Q 2744 2294 2464 2611 
Q 2184 2928 1769 2928 
Q 1347 2928 1069 2612 
Q 791 2297 791 1659 
z
" transform="scale(0.015625)"/>
      <path id="ArialMT-69" d="M 425 3934 
L 425 4581 
L 988 4581 
L 988 3934 
L 425 3934 
z
M 425 0 
L 425 3319 
L 988 3319 
L 988 0 
L 425 0 
z
" transform="scale(0.015625)"/>
      <path id="ArialMT-4d" d="M 475 0 
L 475 4581 
L 1388 4581 
L 2472 1338 
Q 2622 884 2691 659 
Q 2769 909 2934 1394 
L 4031 4581 
L 4847 4581 
L 4847 0 
L 4263 0 
L 4263 3834 
L 2931 0 
L 2384 0 
L 1059 3900 
L 1059 0 
L 475 0 
z
" transform="scale(0.015625)"/>
      <path id="ArialMT-74" d="M 1650 503 
L 1731 6 
Q 1494 -44 1306 -44 
Q 1000 -44 831 53 
Q 663 150 594 308 
Q 525 466 525 972 
L 525 2881 
L 113 2881 
L 113 3319 
L 525 3319 
L 525 4141 
L 1084 4478 
L 1084 3319 
L 1650 3319 
L 1650 2881 
L 1084 2881 
L 1084 941 
Q 1084 700 1114 631 
Q 1144 563 1211 522 
Q 1278 481 1403 481 
Q 1497 481 1650 503 
z
" transform="scale(0.015625)"/>
      <path id="ArialMT-72" d="M 416 0 
L 416 3319 
L 922 3319 
L 922 2816 
Q 1116 3169 1280 3281 
Q 1444 3394 1641 3394 
Q 1925 3394 2219 3213 
L 2025 2691 
Q 1819 2813 1613 2813 
Q 1428 2813 1281 2702 
Q 1134 2591 1072 2394 
Q 978 2094 978 1738 
L 978 0 
L 416 0 
z
" transform="scale(0.015625)"/>
      <path id="ArialMT-63" d="M 2588 1216 
L 3141 1144 
Q 3050 572 2676 248 
Q 2303 -75 1759 -75 
Q 1078 -75 664 370 
Q 250 816 250 1647 
Q 250 2184 428 2587 
Q 606 2991 970 3192 
Q 1334 3394 1763 3394 
Q 2303 3394 2647 3120 
Q 2991 2847 3088 2344 
L 2541 2259 
Q 2463 2594 2264 2762 
Q 2066 2931 1784 2931 
Q 1359 2931 1093 2626 
Q 828 2322 828 1663 
Q 828 994 1084 691 
Q 1341 388 1753 388 
Q 2084 388 2306 591 
Q 2528 794 2588 1216 
z
" transform="scale(0.015625)"/>
     </defs>
     <use xlink:href="#ArialMT-33"/>
     <use xlink:href="#ArialMT-38" transform="translate(55.615234 0)"/>
     <use xlink:href="#ArialMT-34" transform="translate(111.230469 0)"/>
     <use xlink:href="#ArialMT-2d" transform="translate(166.845703 0)"/>
     <use xlink:href="#ArialMT-64" transform="translate(200.146484 0)"/>
     <use xlink:href="#ArialMT-20" transform="translate(255.761719 0)"/>
     <use xlink:href="#ArialMT-43" transform="translate(283.544922 0)"/>
     <use xlink:href="#ArialMT-6f" transform="translate(355.761719 0)"/>
     <use xlink:href="#ArialMT-73" transform="translate(411.376953 0)"/>
     <use xlink:href="#ArialMT-69" transform="translate(461.376953 0)"/>
     <use xlink:href="#ArialMT-6e" transform="translate(483.59375 0)"/>
     <use xlink:href="#ArialMT-65" transform="translate(539.208984 0)"/>
     <use xlink:href="#ArialMT-20" transform="translate(594.824219 0)"/>
     <use xlink:href="#ArialMT-4d" transform="translate(622.607422 0)"/>
     <use xlink:href="#ArialMT-65" transform="translate(705.908203 0)"/>
     <use xlink:href="#ArialMT-74" transform="translate(761.523438 0)"/>
     <use xlink:href="#ArialMT-72" transform="translate(789.306641 0)"/>
     <use xlink:href="#ArialMT-69" transform="translate(822.607422 0)"/>
     <use xlink:href="#ArialMT-63" transform="translate(844.824219 0)"/>
    </g>
   </g>
   <g id="text_3">
    <!-- Graph Store $\mathcal{G}_{\mathrm{topo}}$ -->
    <g style="fill: #166534" transform="translate(105.0605 208.179492) scale(0.085 -0.085)">
     <defs>
      <path id="ArialMT-47" d="M 2638 1797 
L 2638 2334 
L 4578 2338 
L 4578 638 
Q 4131 281 3656 101 
Q 3181 -78 2681 -78 
Q 2006 -78 1454 211 
Q 903 500 622 1047 
Q 341 1594 341 2269 
Q 341 2938 620 3517 
Q 900 4097 1425 4378 
Q 1950 4659 2634 4659 
Q 3131 4659 3532 4498 
Q 3934 4338 4162 4050 
Q 4391 3763 4509 3300 
L 3963 3150 
Q 3859 3500 3706 3700 
Q 3553 3900 3268 4020 
Q 2984 4141 2638 4141 
Q 2222 4141 1919 4014 
Q 1616 3888 1430 3681 
Q 1244 3475 1141 3228 
Q 966 2803 966 2306 
Q 966 1694 1177 1281 
Q 1388 869 1791 669 
Q 2194 469 2647 469 
Q 3041 469 3416 620 
Q 3791 772 3984 944 
L 3984 1797 
L 2638 1797 
z
" transform="scale(0.015625)"/>
      <path id="ArialMT-61" d="M 2588 409 
Q 2275 144 1986 34 
Q 1697 -75 1366 -75 
Q 819 -75 525 192 
Q 231 459 231 875 
Q 231 1119 342 1320 
Q 453 1522 633 1644 
Q 813 1766 1038 1828 
Q 1203 1872 1538 1913 
Q 2219 1994 2541 2106 
Q 2544 2222 2544 2253 
Q 2544 2597 2384 2738 
Q 2169 2928 1744 2928 
Q 1347 2928 1158 2789 
Q 969 2650 878 2297 
L 328 2372 
Q 403 2725 575 2942 
Q 747 3159 1072 3276 
Q 1397 3394 1825 3394 
Q 2250 3394 2515 3294 
Q 2781 3194 2906 3042 
Q 3031 2891 3081 2659 
Q 3109 2516 3109 2141 
L 3109 1391 
Q 3109 606 3145 398 
Q 3181 191 3288 0 
L 2700 0 
Q 2613 175 2588 409 
z
M 2541 1666 
Q 2234 1541 1622 1453 
Q 1275 1403 1131 1340 
Q 988 1278 909 1158 
Q 831 1038 831 891 
Q 831 666 1001 516 
Q 1172 366 1500 366 
Q 1825 366 2078 508 
Q 2331 650 2450 897 
Q 2541 1088 2541 1459 
L 2541 1666 
z
" transform="scale(0.015625)"/>
      <path id="ArialMT-70" d="M 422 -1272 
L 422 3319 
L 934 3319 
L 934 2888 
Q 1116 3141 1344 3267 
Q 1572 3394 1897 3394 
Q 2322 3394 2647 3175 
Q 2972 2956 3137 2557 
Q 3303 2159 3303 1684 
Q 3303 1175 3120 767 
Q 2938 359 2589 142 
Q 2241 -75 1856 -75 
Q 1575 -75 1351 44 
Q 1128 163 984 344 
L 984 -1272 
L 422 -1272 
z
M 931 1641 
Q 931 1000 1190 694 
Q 1450 388 1819 388 
Q 2194 388 2461 705 
Q 2728 1022 2728 1688 
Q 2728 2322 2467 2637 
Q 2206 2953 1844 2953 
Q 1484 2953 1207 2617 
Q 931 2281 931 1641 
z
" transform="scale(0.015625)"/>
      <path id="ArialMT-68" d="M 422 0 
L 422 4581 
L 984 4581 
L 984 2938 
Q 1378 3394 1978 3394 
Q 2347 3394 2619 3248 
Q 2891 3103 3008 2847 
Q 3125 2591 3125 2103 
L 3125 0 
L 2563 0 
L 2563 2103 
Q 2563 2525 2380 2717 
Q 2197 2909 1863 2909 
Q 1613 2909 1392 2779 
Q 1172 2650 1078 2428 
Q 984 2206 984 1816 
L 984 0 
L 422 0 
z
" transform="scale(0.015625)"/>
      <path id="Cmsy10-47" d="M 341 -488 
Q 325 -478 325 -447 
Q 325 -341 512 -237 
Q 700 -134 819 -122 
L 850 -122 
Q 1153 -269 1342 -326 
Q 1531 -384 1813 -384 
Q 1953 -384 2034 -347 
Q 2266 -197 2450 192 
Q 2634 581 2759 991 
Q 2466 750 2108 592 
Q 1750 434 1403 434 
Q 1028 434 776 609 
Q 525 784 403 1079 
Q 281 1375 281 1741 
Q 281 2284 500 2787 
Q 719 3291 1098 3678 
Q 1478 4066 1979 4289 
Q 2481 4513 3022 4513 
L 3059 4513 
Q 3378 4513 3609 4425 
Q 3841 4338 3841 4084 
Q 3841 3963 3761 3794 
Q 3681 3625 3567 3465 
Q 3453 3306 3347 3200 
Q 3159 3034 2950 3016 
L 2919 3016 
Q 2875 3038 2875 3059 
Q 2875 3091 2994 3256 
Q 3113 3422 3192 3558 
Q 3272 3694 3272 3803 
Q 3272 4006 3065 4070 
Q 2859 4134 2591 4134 
Q 2303 4134 2067 4056 
Q 1831 3978 1640 3825 
Q 1450 3672 1288 3431 
Q 1081 3122 965 2748 
Q 850 2375 850 2016 
Q 850 1778 909 1565 
Q 969 1353 1092 1181 
Q 1216 1009 1400 911 
Q 1584 813 1831 813 
Q 2056 813 2253 922 
Q 2450 1031 2608 1214 
Q 2766 1397 2880 1625 
Q 2994 1853 3047 2059 
Q 3081 2172 3245 2269 
Q 3409 2366 3541 2375 
L 3572 2375 
Q 3616 2353 3616 2316 
Q 3519 1916 3467 1711 
Q 3416 1506 3341 1264 
Q 3266 1022 3159 756 
Q 3053 491 2931 281 
Q 2769 -9 2533 -246 
Q 2297 -484 2006 -623 
Q 1716 -763 1388 -763 
L 1356 -763 
Q 797 -763 341 -488 
z
" transform="scale(0.015625)"/>
      <path id="Cmr10-74" d="M 653 769 
L 653 2534 
L 122 2534 
L 122 2700 
Q 541 2700 737 3090 
Q 934 3481 934 3938 
L 1119 3938 
L 1119 2759 
L 2022 2759 
L 2022 2534 
L 1119 2534 
L 1119 781 
Q 1119 516 1208 316 
Q 1297 116 1528 116 
Q 1747 116 1844 327 
Q 1941 538 1941 781 
L 1941 1159 
L 2125 1159 
L 2125 769 
Q 2125 569 2051 373 
Q 1978 178 1834 53 
Q 1691 -72 1484 -72 
Q 1100 -72 876 158 
Q 653 388 653 769 
z
" transform="scale(0.015625)"/>
      <path id="Cmr10-6f" d="M 1600 -72 
Q 1216 -72 887 123 
Q 559 319 368 647 
Q 178 975 178 1363 
Q 178 1656 283 1928 
Q 388 2200 583 2414 
Q 778 2628 1037 2748 
Q 1297 2869 1600 2869 
Q 1994 2869 2317 2661 
Q 2641 2453 2828 2104 
Q 3016 1756 3016 1363 
Q 3016 978 2825 648 
Q 2634 319 2307 123 
Q 1981 -72 1600 -72 
z
M 1600 116 
Q 2113 116 2284 487 
Q 2456 859 2456 1434 
Q 2456 1756 2422 1967 
Q 2388 2178 2272 2350 
Q 2200 2456 2089 2536 
Q 1978 2616 1854 2658 
Q 1731 2700 1600 2700 
Q 1400 2700 1220 2609 
Q 1041 2519 922 2350 
Q 803 2169 770 1951 
Q 738 1734 738 1434 
Q 738 1075 800 789 
Q 863 503 1052 309 
Q 1241 116 1600 116 
z
" transform="scale(0.015625)"/>
      <path id="Cmr10-70" d="M 166 -1241 
L 166 -1019 
Q 384 -1019 525 -981 
Q 666 -944 666 -813 
L 666 2272 
Q 666 2447 541 2490 
Q 416 2534 166 2534 
L 166 2759 
L 1113 2828 
L 1113 2431 
Q 1288 2625 1520 2726 
Q 1753 2828 2016 2828 
Q 2394 2828 2697 2623 
Q 3000 2419 3170 2086 
Q 3341 1753 3341 1381 
Q 3341 994 3152 659 
Q 2963 325 2636 126 
Q 2309 -72 1919 -72 
Q 1453 -72 1131 306 
L 1131 -813 
Q 1131 -944 1273 -981 
Q 1416 -1019 1631 -1019 
L 1631 -1241 
L 166 -1241 
z
M 1131 622 
Q 1244 394 1444 245 
Q 1644 97 1881 97 
Q 2103 97 2273 215 
Q 2444 334 2559 534 
Q 2675 734 2729 954 
Q 2784 1175 2784 1381 
Q 2784 1638 2692 1936 
Q 2600 2234 2411 2439 
Q 2222 2644 1953 2644 
Q 1694 2644 1476 2511 
Q 1259 2378 1131 2150 
L 1131 622 
z
" transform="scale(0.015625)"/>
     </defs>
     <use xlink:href="#ArialMT-47" transform="translate(0 0.203125)"/>
     <use xlink:href="#ArialMT-72" transform="translate(77.783203 0.203125)"/>
     <use xlink:href="#ArialMT-61" transform="translate(111.083984 0.203125)"/>
     <use xlink:href="#ArialMT-70" transform="translate(166.699219 0.203125)"/>
     <use xlink:href="#ArialMT-68" transform="translate(222.314453 0.203125)"/>
     <use xlink:href="#ArialMT-20" transform="translate(277.929688 0.203125)"/>
     <use xlink:href="#ArialMT-53" transform="translate(305.712891 0.203125)"/>
     <use xlink:href="#ArialMT-74" transform="translate(372.412109 0.203125)"/>
     <use xlink:href="#ArialMT-6f" transform="translate(400.195312 0.203125)"/>
     <use xlink:href="#ArialMT-72" transform="translate(455.810547 0.203125)"/>
     <use xlink:href="#ArialMT-65" transform="translate(489.111328 0.203125)"/>
     <use xlink:href="#ArialMT-20" transform="translate(544.726562 0.203125)"/>
     <use xlink:href="#Cmsy10-47" transform="translate(572.509766 0.203125)"/>
     <use xlink:href="#Cmr10-74" transform="translate(636.397734 -16.803125) scale(0.7)"/>
     <use xlink:href="#Cmr10-6f" transform="translate(663.570586 -16.803125) scale(0.7)"/>
     <use xlink:href="#Cmr10-70" transform="translate(698.570586 -16.803125) scale(0.7)"/>
     <use xlink:href="#Cmr10-6f" transform="translate(737.432891 -16.803125) scale(0.7)"/>
    </g>
    <!-- Neo4j / NetworkX Adjacency -->
    <g style="fill: #166534" transform="translate(84.546281 218.239773) scale(0.085 -0.085)">
     <defs>
      <path id="ArialMT-4e" d="M 488 0 
L 488 4581 
L 1109 4581 
L 3516 984 
L 3516 4581 
L 4097 4581 
L 4097 0 
L 3475 0 
L 1069 3600 
L 1069 0 
L 488 0 
z
" transform="scale(0.015625)"/>
      <path id="ArialMT-6a" d="M 419 3928 
L 419 4581 
L 981 4581 
L 981 3928 
L 419 3928 
z
M -294 -1288 
L -188 -809 
Q -19 -853 78 -853 
Q 250 -853 334 -739 
Q 419 -625 419 -169 
L 419 3319 
L 981 3319 
L 981 -181 
Q 981 -794 822 -1034 
Q 619 -1347 147 -1347 
Q -81 -1347 -294 -1288 
z
" transform="scale(0.015625)"/>
      <path id="ArialMT-2f" d="M 0 -78 
L 1328 4659 
L 1778 4659 
L 453 -78 
L 0 -78 
z
" transform="scale(0.015625)"/>
      <path id="ArialMT-77" d="M 1034 0 
L 19 3319 
L 600 3319 
L 1128 1403 
L 1325 691 
Q 1338 744 1497 1375 
L 2025 3319 
L 2603 3319 
L 3100 1394 
L 3266 759 
L 3456 1400 
L 4025 3319 
L 4572 3319 
L 3534 0 
L 2950 0 
L 2422 1988 
L 2294 2553 
L 1622 0 
L 1034 0 
z
" transform="scale(0.015625)"/>
      <path id="ArialMT-6b" d="M 425 0 
L 425 4581 
L 988 4581 
L 988 1969 
L 2319 3319 
L 3047 3319 
L 1778 2088 
L 3175 0 
L 2481 0 
L 1384 1697 
L 988 1316 
L 988 0 
L 425 0 
z
" transform="scale(0.015625)"/>
      <path id="ArialMT-58" d="M 28 0 
L 1800 2388 
L 238 4581 
L 959 4581 
L 1791 3406 
Q 2050 3041 2159 2844 
Q 2313 3094 2522 3366 
L 3444 4581 
L 4103 4581 
L 2494 2422 
L 4228 0 
L 3478 0 
L 2325 1634 
Q 2228 1775 2125 1941 
Q 1972 1691 1906 1597 
L 756 0 
L 28 0 
z
" transform="scale(0.015625)"/>
      <path id="ArialMT-79" d="M 397 -1278 
L 334 -750 
Q 519 -800 656 -800 
Q 844 -800 956 -737 
Q 1069 -675 1141 -563 
Q 1194 -478 1313 -144 
Q 1328 -97 1363 -6 
L 103 3319 
L 709 3319 
L 1400 1397 
Q 1534 1031 1641 628 
Q 1738 1016 1872 1384 
L 2581 3319 
L 3144 3319 
L 1881 -56 
Q 1678 -603 1566 -809 
Q 1416 -1088 1222 -1217 
Q 1028 -1347 759 -1347 
Q 597 -1347 397 -1278 
z
" transform="scale(0.015625)"/>
     </defs>
     <use xlink:href="#ArialMT-4e"/>
     <use xlink:href="#ArialMT-65" transform="translate(72.216797 0)"/>
     <use xlink:href="#ArialMT-6f" transform="translate(127.832031 0)"/>
     <use xlink:href="#ArialMT-34" transform="translate(183.447266 0)"/>
     <use xlink:href="#ArialMT-6a" transform="translate(239.0625 0)"/>
     <use xlink:href="#ArialMT-20" transform="translate(261.279297 0)"/>
     <use xlink:href="#ArialMT-2f" transform="translate(289.0625 0)"/>
     <use xlink:href="#ArialMT-20" transform="translate(316.845703 0)"/>
     <use xlink:href="#ArialMT-4e" transform="translate(344.628906 0)"/>
     <use xlink:href="#ArialMT-65" transform="translate(416.845703 0)"/>
     <use xlink:href="#ArialMT-74" transform="translate(472.460938 0)"/>
     <use xlink:href="#ArialMT-77" transform="translate(500.244141 0)"/>
     <use xlink:href="#ArialMT-6f" transform="translate(572.460938 0)"/>
     <use xlink:href="#ArialMT-72" transform="translate(628.076172 0)"/>
     <use xlink:href="#ArialMT-6b" transform="translate(661.376953 0)"/>
     <use xlink:href="#ArialMT-58" transform="translate(711.376953 0)"/>
     <use xlink:href="#ArialMT-20" transform="translate(778.076172 0)"/>
     <use xlink:href="#ArialMT-41" transform="translate(800.359375 0)"/>
     <use xlink:href="#ArialMT-64" transform="translate(867.058594 0)"/>
     <use xlink:href="#ArialMT-6a" transform="translate(922.673828 0)"/>
     <use xlink:href="#ArialMT-61" transform="translate(944.890625 0)"/>
     <use xlink:href="#ArialMT-63" transform="translate(1000.505859 0)"/>
     <use xlink:href="#ArialMT-65" transform="translate(1050.505859 0)"/>
     <use xlink:href="#ArialMT-6e" transform="translate(1106.121094 0)"/>
     <use xlink:href="#ArialMT-63" transform="translate(1161.736328 0)"/>
     <use xlink:href="#ArialMT-79" transform="translate(1211.736328 0)"/>
    </g>
   </g>
   <g id="patch_13">
    <path d="M 248.022413 164.061625 
Q 265.28234 164.061625 279.747183 164.061625 
" style="fill: none; stroke: #3b82f6; stroke-width: 2.5; stroke-linecap: round"/>
    <path d="M 275.747183 162.061625 
L 279.747183 164.061625 
L 275.747183 166.061625 
" style="fill: none; stroke: #3b82f6; stroke-width: 2.5; stroke-linecap: round"/>
   </g>
   <g id="text_4">
    <!-- Top-$k$ -->
    <g style="fill: #2563eb" transform="translate(253.8515 140.978656) scale(0.085 -0.085)">
     <defs>
      <path id="Arial-BoldMT-54" d="M 1497 0 
L 1497 3806 
L 138 3806 
L 138 4581 
L 3778 4581 
L 3778 3806 
L 2422 3806 
L 2422 0 
L 1497 0 
z
" transform="scale(0.015625)"/>
      <path id="Arial-BoldMT-6f" d="M 256 1706 
Q 256 2144 472 2553 
Q 688 2963 1083 3178 
Q 1478 3394 1966 3394 
Q 2719 3394 3200 2905 
Q 3681 2416 3681 1669 
Q 3681 916 3195 420 
Q 2709 -75 1972 -75 
Q 1516 -75 1102 131 
Q 688 338 472 736 
Q 256 1134 256 1706 
z
M 1156 1659 
Q 1156 1166 1390 903 
Q 1625 641 1969 641 
Q 2313 641 2545 903 
Q 2778 1166 2778 1666 
Q 2778 2153 2545 2415 
Q 2313 2678 1969 2678 
Q 1625 2678 1390 2415 
Q 1156 2153 1156 1659 
z
" transform="scale(0.015625)"/>
      <path id="Arial-BoldMT-70" d="M 434 3319 
L 1253 3319 
L 1253 2831 
Q 1413 3081 1684 3237 
Q 1956 3394 2288 3394 
Q 2866 3394 3269 2941 
Q 3672 2488 3672 1678 
Q 3672 847 3265 386 
Q 2859 -75 2281 -75 
Q 2006 -75 1782 34 
Q 1559 144 1313 409 
L 1313 -1263 
L 434 -1263 
L 434 3319 
z
M 1303 1716 
Q 1303 1156 1525 889 
Q 1747 622 2066 622 
Q 2372 622 2575 867 
Q 2778 1113 2778 1672 
Q 2778 2194 2568 2447 
Q 2359 2700 2050 2700 
Q 1728 2700 1515 2451 
Q 1303 2203 1303 1716 
z
" transform="scale(0.015625)"/>
      <path id="Arial-BoldMT-2d" d="M 359 1222 
L 359 2100 
L 2084 2100 
L 2084 1222 
L 359 1222 
z
" transform="scale(0.015625)"/>
      <path id="Cmmi10-6b" d="M 341 116 
Q 341 153 347 172 
L 1275 3872 
Q 1300 3981 1306 4044 
Q 1306 4147 891 4147 
Q 825 4147 825 4231 
Q 828 4247 839 4287 
Q 850 4328 867 4350 
Q 884 4372 916 4372 
L 1778 4441 
L 1797 4441 
Q 1797 4434 1819 4423 
Q 1841 4413 1844 4409 
Q 1856 4378 1856 4359 
L 1184 1684 
Q 1416 1781 1767 2145 
Q 2119 2509 2317 2668 
Q 2516 2828 2816 2828 
Q 2994 2828 3119 2706 
Q 3244 2584 3244 2406 
Q 3244 2294 3197 2198 
Q 3150 2103 3065 2043 
Q 2981 1984 2869 1984 
Q 2766 1984 2695 2048 
Q 2625 2113 2625 2216 
Q 2625 2369 2733 2473 
Q 2841 2578 2994 2578 
Q 2931 2663 2803 2663 
Q 2613 2663 2436 2553 
Q 2259 2444 2054 2239 
Q 1850 2034 1681 1864 
Q 1513 1694 1369 1606 
Q 1747 1563 2025 1408 
Q 2303 1253 2303 934 
Q 2303 869 2278 769 
Q 2222 528 2222 384 
Q 2222 97 2419 97 
Q 2650 97 2770 350 
Q 2891 603 2969 941 
Q 2981 978 3022 978 
L 3097 978 
Q 3122 978 3139 962 
Q 3156 947 3156 922 
Q 3156 916 3150 903 
Q 2909 -72 2406 -72 
Q 2225 -72 2086 12 
Q 1947 97 1872 242 
Q 1797 388 1797 569 
Q 1797 672 1825 781 
Q 1844 856 1844 922 
Q 1844 1169 1625 1297 
Q 1406 1425 1125 1453 
L 800 147 
Q 775 50 703 -11 
Q 631 -72 538 -72 
Q 456 -72 398 -17 
Q 341 38 341 116 
z
" transform="scale(0.015625)"/>
     </defs>
     <use xlink:href="#Arial-BoldMT-54" transform="translate(0 0.421875)"/>
     <use xlink:href="#Arial-BoldMT-6f" transform="translate(61.083984 0.421875)"/>
     <use xlink:href="#Arial-BoldMT-70" transform="translate(122.167969 0.421875)"/>
     <use xlink:href="#Arial-BoldMT-2d" transform="translate(183.251953 0.421875)"/>
     <use xlink:href="#Cmmi10-6b" transform="translate(216.552734 0.421875)"/>
    </g>
    <!-- $\mathcal{E}_k$ -->
    <g style="fill: #2563eb" transform="translate(261.034 149.979625) scale(0.085 -0.085)">
     <defs>
      <path id="Cmsy10-45" d="M 184 653 
Q 184 984 386 1314 
Q 588 1644 895 1905 
Q 1203 2166 1503 2316 
Q 1244 2419 1086 2597 
Q 928 2775 928 3034 
Q 928 3344 1115 3612 
Q 1303 3881 1606 4084 
Q 1909 4288 2251 4400 
Q 2594 4513 2875 4513 
L 2913 4513 
Q 3188 4513 3398 4416 
Q 3609 4319 3609 4084 
Q 3609 3928 3525 3787 
Q 3441 3647 3303 3555 
Q 3166 3463 3016 3450 
L 2981 3450 
Q 2969 3456 2953 3468 
Q 2938 3481 2938 3500 
Q 2938 3519 2944 3531 
Q 2975 3588 2995 3631 
Q 3016 3675 3028 3717 
Q 3041 3759 3041 3803 
Q 3041 3994 2861 4064 
Q 2681 4134 2450 4134 
Q 2206 4134 1984 4034 
Q 1763 3934 1630 3748 
Q 1497 3563 1497 3309 
Q 1497 2941 1840 2766 
Q 2184 2591 2584 2591 
Q 2631 2569 2631 2541 
Q 2631 2441 2445 2334 
Q 2259 2228 2144 2216 
Q 1588 2216 1184 1831 
Q 1006 1641 881 1397 
Q 756 1153 756 934 
Q 756 703 900 545 
Q 1044 388 1261 313 
Q 1478 238 1703 238 
Q 1988 238 2164 338 
Q 2341 438 2531 653 
Q 2722 869 2826 958 
Q 2931 1047 3116 1063 
L 3150 1063 
Q 3194 1041 3194 1013 
Q 3194 991 3169 941 
Q 2966 644 2659 398 
Q 2353 153 1990 6 
Q 1628 -141 1281 -141 
L 1241 -141 
Q 994 -141 747 -51 
Q 500 38 342 217 
Q 184 397 184 653 
z
" transform="scale(0.015625)"/>
     </defs>
     <use xlink:href="#Cmsy10-45" transform="translate(0 0.484375)"/>
     <use xlink:href="#Cmmi10-6b" transform="translate(57.149687 -16.521875) scale(0.7)"/>
    </g>
   </g>
   <g id="text_5">
    <!-- Cross-Attention Denoising Block -->
    <g style="fill: #581c87" transform="translate(321.642766 77.721875) scale(0.11 -0.11)">
     <defs>
      <path id="Arial-BoldMT-43" d="M 3397 1684 
L 4294 1400 
Q 4088 650 3608 286 
Q 3128 -78 2391 -78 
Q 1478 -78 890 545 
Q 303 1169 303 2250 
Q 303 3394 893 4026 
Q 1484 4659 2447 4659 
Q 3288 4659 3813 4163 
Q 4125 3869 4281 3319 
L 3366 3100 
Q 3284 3456 3026 3662 
Q 2769 3869 2400 3869 
Q 1891 3869 1573 3503 
Q 1256 3138 1256 2319 
Q 1256 1450 1568 1081 
Q 1881 713 2381 713 
Q 2750 713 3015 947 
Q 3281 1181 3397 1684 
z
" transform="scale(0.015625)"/>
      <path id="Arial-BoldMT-73" d="M 150 947 
L 1031 1081 
Q 1088 825 1259 692 
Q 1431 559 1741 559 
Q 2081 559 2253 684 
Q 2369 772 2369 919 
Q 2369 1019 2306 1084 
Q 2241 1147 2013 1200 
Q 950 1434 666 1628 
Q 272 1897 272 2375 
Q 272 2806 612 3100 
Q 953 3394 1669 3394 
Q 2350 3394 2681 3172 
Q 3013 2950 3138 2516 
L 2309 2363 
Q 2256 2556 2107 2659 
Q 1959 2763 1684 2763 
Q 1338 2763 1188 2666 
Q 1088 2597 1088 2488 
Q 1088 2394 1175 2328 
Q 1294 2241 1995 2081 
Q 2697 1922 2975 1691 
Q 3250 1456 3250 1038 
Q 3250 581 2869 253 
Q 2488 -75 1741 -75 
Q 1063 -75 667 200 
Q 272 475 150 947 
z
" transform="scale(0.015625)"/>
      <path id="Arial-BoldMT-41" d="M 4597 0 
L 3591 0 
L 3191 1041 
L 1359 1041 
L 981 0 
L 0 0 
L 1784 4581 
L 2763 4581 
L 4597 0 
z
M 2894 1813 
L 2263 3513 
L 1644 1813 
L 2894 1813 
z
" transform="scale(0.015625)"/>
      <path id="Arial-BoldMT-67" d="M 378 -219 
L 1381 -341 
Q 1406 -516 1497 -581 
Q 1622 -675 1891 -675 
Q 2234 -675 2406 -572 
Q 2522 -503 2581 -350 
Q 2622 -241 2622 53 
L 2622 538 
Q 2228 0 1628 0 
Q 959 0 569 566 
Q 263 1013 263 1678 
Q 263 2513 664 2953 
Q 1066 3394 1663 3394 
Q 2278 3394 2678 2853 
L 2678 3319 
L 3500 3319 
L 3500 341 
Q 3500 -247 3403 -537 
Q 3306 -828 3131 -993 
Q 2956 -1159 2664 -1253 
Q 2372 -1347 1925 -1347 
Q 1081 -1347 728 -1058 
Q 375 -769 375 -325 
Q 375 -281 378 -219 
z
M 1163 1728 
Q 1163 1200 1367 954 
Q 1572 709 1872 709 
Q 2194 709 2416 961 
Q 2638 1213 2638 1706 
Q 2638 2222 2425 2472 
Q 2213 2722 1888 2722 
Q 1572 2722 1367 2476 
Q 1163 2231 1163 1728 
z
" transform="scale(0.015625)"/>
      <path id="Arial-BoldMT-42" d="M 469 4581 
L 2300 4581 
Q 2844 4581 3111 4536 
Q 3378 4491 3589 4347 
Q 3800 4203 3940 3964 
Q 4081 3725 4081 3428 
Q 4081 3106 3907 2837 
Q 3734 2569 3438 2434 
Q 3856 2313 4081 2019 
Q 4306 1725 4306 1328 
Q 4306 1016 4161 720 
Q 4016 425 3764 248 
Q 3513 72 3144 31 
Q 2913 6 2028 0 
L 469 0 
L 469 4581 
z
M 1394 3819 
L 1394 2759 
L 2000 2759 
Q 2541 2759 2672 2775 
Q 2909 2803 3045 2939 
Q 3181 3075 3181 3297 
Q 3181 3509 3064 3642 
Q 2947 3775 2716 3803 
Q 2578 3819 1925 3819 
L 1394 3819 
z
M 1394 1997 
L 1394 772 
L 2250 772 
Q 2750 772 2884 800 
Q 3091 838 3220 983 
Q 3350 1128 3350 1372 
Q 3350 1578 3250 1722 
Q 3150 1866 2961 1931 
Q 2772 1997 2141 1997 
L 1394 1997 
z
" transform="scale(0.015625)"/>
      <path id="Arial-BoldMT-63" d="M 3353 2338 
L 2488 2181 
Q 2444 2441 2289 2572 
Q 2134 2703 1888 2703 
Q 1559 2703 1364 2476 
Q 1169 2250 1169 1719 
Q 1169 1128 1367 884 
Q 1566 641 1900 641 
Q 2150 641 2309 783 
Q 2469 925 2534 1272 
L 3397 1125 
Q 3263 531 2881 228 
Q 2500 -75 1859 -75 
Q 1131 -75 698 384 
Q 266 844 266 1656 
Q 266 2478 700 2936 
Q 1134 3394 1875 3394 
Q 2481 3394 2839 3133 
Q 3197 2872 3353 2338 
z
" transform="scale(0.015625)"/>
      <path id="Arial-BoldMT-6b" d="M 428 0 
L 428 4581 
L 1306 4581 
L 1306 2150 
L 2334 3319 
L 3416 3319 
L 2281 2106 
L 3497 0 
L 2550 0 
L 1716 1491 
L 1306 1063 
L 1306 0 
L 428 0 
z
" transform="scale(0.015625)"/>
     </defs>
     <use xlink:href="#Arial-BoldMT-43"/>
     <use xlink:href="#Arial-BoldMT-72" transform="translate(72.216797 0)"/>
     <use xlink:href="#Arial-BoldMT-6f" transform="translate(111.132812 0)"/>
     <use xlink:href="#Arial-BoldMT-73" transform="translate(172.216797 0)"/>
     <use xlink:href="#Arial-BoldMT-73" transform="translate(227.832031 0)"/>
     <use xlink:href="#Arial-BoldMT-2d" transform="translate(283.447266 0)"/>
     <use xlink:href="#Arial-BoldMT-41" transform="translate(316.748047 0)"/>
     <use xlink:href="#Arial-BoldMT-74" transform="translate(388.964844 0)"/>
     <use xlink:href="#Arial-BoldMT-74" transform="translate(422.265625 0)"/>
     <use xlink:href="#Arial-BoldMT-65" transform="translate(455.566406 0)"/>
     <use xlink:href="#Arial-BoldMT-6e" transform="translate(511.181641 0)"/>
     <use xlink:href="#Arial-BoldMT-74" transform="translate(572.265625 0)"/>
     <use xlink:href="#Arial-BoldMT-69" transform="translate(605.566406 0)"/>
     <use xlink:href="#Arial-BoldMT-6f" transform="translate(633.349609 0)"/>
     <use xlink:href="#Arial-BoldMT-6e" transform="translate(694.433594 0)"/>
     <use xlink:href="#Arial-BoldMT-20" transform="translate(755.517578 0)"/>
     <use xlink:href="#Arial-BoldMT-44" transform="translate(783.300781 0)"/>
     <use xlink:href="#Arial-BoldMT-65" transform="translate(855.517578 0)"/>
     <use xlink:href="#Arial-BoldMT-6e" transform="translate(911.132812 0)"/>
     <use xlink:href="#Arial-BoldMT-6f" transform="translate(972.216797 0)"/>
     <use xlink:href="#Arial-BoldMT-69" transform="translate(1033.300781 0)"/>
     <use xlink:href="#Arial-BoldMT-73" transform="translate(1061.083984 0)"/>
     <use xlink:href="#Arial-BoldMT-69" transform="translate(1116.699219 0)"/>
     <use xlink:href="#Arial-BoldMT-6e" transform="translate(1144.482422 0)"/>
     <use xlink:href="#Arial-BoldMT-67" transform="translate(1205.566406 0)"/>
     <use xlink:href="#Arial-BoldMT-20" transform="translate(1266.650391 0)"/>
     <use xlink:href="#Arial-BoldMT-42" transform="translate(1294.433594 0)"/>
     <use xlink:href="#Arial-BoldMT-6c" transform="translate(1366.650391 0)"/>
     <use xlink:href="#Arial-BoldMT-6f" transform="translate(1394.433594 0)"/>
     <use xlink:href="#Arial-BoldMT-63" transform="translate(1455.517578 0)"/>
     <use xlink:href="#Arial-BoldMT-6b" transform="translate(1511.132812 0)"/>
    </g>
   </g>
   <g id="text_6">
    <!-- Relational Graph Conv (RGCN) -->
    <g style="fill: #4c1d95" transform="translate(345.474445 114.627) scale(0.085 -0.085)">
     <defs>
      <path id="Arial-BoldMT-47" d="M 2597 1684 
L 2597 2456 
L 4591 2456 
L 4591 631 
Q 4300 350 3748 136 
Q 3197 -78 2631 -78 
Q 1913 -78 1378 223 
Q 844 525 575 1086 
Q 306 1647 306 2306 
Q 306 3022 606 3578 
Q 906 4134 1484 4431 
Q 1925 4659 2581 4659 
Q 3434 4659 3914 4301 
Q 4394 3944 4531 3313 
L 3613 3141 
Q 3516 3478 3248 3673 
Q 2981 3869 2581 3869 
Q 1975 3869 1617 3484 
Q 1259 3100 1259 2344 
Q 1259 1528 1621 1120 
Q 1984 713 2572 713 
Q 2863 713 3155 827 
Q 3447 941 3656 1103 
L 3656 1684 
L 2597 1684 
z
" transform="scale(0.015625)"/>
      <path id="Arial-BoldMT-68" d="M 1334 4581 
L 1334 2897 
Q 1759 3394 2350 3394 
Q 2653 3394 2897 3281 
Q 3141 3169 3264 2994 
Q 3388 2819 3433 2606 
Q 3478 2394 3478 1947 
L 3478 0 
L 2600 0 
L 2600 1753 
Q 2600 2275 2550 2415 
Q 2500 2556 2373 2639 
Q 2247 2722 2056 2722 
Q 1838 2722 1666 2615 
Q 1494 2509 1414 2295 
Q 1334 2081 1334 1663 
L 1334 0 
L 456 0 
L 456 4581 
L 1334 4581 
z
" transform="scale(0.015625)"/>
      <path id="Arial-BoldMT-28" d="M 1916 -1347 
L 1313 -1347 
Q 834 -625 584 153 
Q 334 931 334 1659 
Q 334 2563 644 3369 
Q 913 4069 1325 4659 
L 1925 4659 
Q 1497 3713 1336 3048 
Q 1175 2384 1175 1641 
Q 1175 1128 1270 590 
Q 1366 53 1531 -431 
Q 1641 -750 1916 -1347 
z
" transform="scale(0.015625)"/>
      <path id="Arial-BoldMT-4e" d="M 475 0 
L 475 4581 
L 1375 4581 
L 3250 1522 
L 3250 4581 
L 4109 4581 
L 4109 0 
L 3181 0 
L 1334 2988 
L 1334 0 
L 475 0 
z
" transform="scale(0.015625)"/>
      <path id="Arial-BoldMT-29" d="M 216 -1347 
Q 475 -791 581 -494 
Q 688 -197 778 190 
Q 869 578 912 926 
Q 956 1275 956 1641 
Q 956 2384 797 3048 
Q 638 3713 209 4659 
L 806 4659 
Q 1278 3988 1539 3234 
Q 1800 2481 1800 1706 
Q 1800 1053 1594 306 
Q 1359 -531 822 -1347 
L 216 -1347 
z
" transform="scale(0.015625)"/>
     </defs>
     <use xlink:href="#Arial-BoldMT-52"/>
     <use xlink:href="#Arial-BoldMT-65" transform="translate(72.216797 0)"/>
     <use xlink:href="#Arial-BoldMT-6c" transform="translate(127.832031 0)"/>
     <use xlink:href="#Arial-BoldMT-61" transform="translate(155.615234 0)"/>
     <use xlink:href="#Arial-BoldMT-74" transform="translate(211.230469 0)"/>
     <use xlink:href="#Arial-BoldMT-69" transform="translate(244.53125 0)"/>
     <use xlink:href="#Arial-BoldMT-6f" transform="translate(272.314453 0)"/>
     <use xlink:href="#Arial-BoldMT-6e" transform="translate(333.398438 0)"/>
     <use xlink:href="#Arial-BoldMT-61" transform="translate(394.482422 0)"/>
     <use xlink:href="#Arial-BoldMT-6c" transform="translate(450.097656 0)"/>
     <use xlink:href="#Arial-BoldMT-20" transform="translate(477.880859 0)"/>
     <use xlink:href="#Arial-BoldMT-47" transform="translate(505.664062 0)"/>
     <use xlink:href="#Arial-BoldMT-72" transform="translate(583.447266 0)"/>
     <use xlink:href="#Arial-BoldMT-61" transform="translate(622.363281 0)"/>
     <use xlink:href="#Arial-BoldMT-70" transform="translate(677.978516 0)"/>
     <use xlink:href="#Arial-BoldMT-68" transform="translate(739.0625 0)"/>
     <use xlink:href="#Arial-BoldMT-20" transform="translate(800.146484 0)"/>
     <use xlink:href="#Arial-BoldMT-43" transform="translate(827.929688 0)"/>
     <use xlink:href="#Arial-BoldMT-6f" transform="translate(900.146484 0)"/>
     <use xlink:href="#Arial-BoldMT-6e" transform="translate(961.230469 0)"/>
     <use xlink:href="#Arial-BoldMT-76" transform="translate(1022.314453 0)"/>
     <use xlink:href="#Arial-BoldMT-20" transform="translate(1077.929688 0)"/>
     <use xlink:href="#Arial-BoldMT-28" transform="translate(1105.712891 0)"/>
     <use xlink:href="#Arial-BoldMT-52" transform="translate(1139.013672 0)"/>
     <use xlink:href="#Arial-BoldMT-47" transform="translate(1211.230469 0)"/>
     <use xlink:href="#Arial-BoldMT-43" transform="translate(1289.013672 0)"/>
     <use xlink:href="#Arial-BoldMT-4e" transform="translate(1361.230469 0)"/>
     <use xlink:href="#Arial-BoldMT-29" transform="translate(1433.447266 0)"/>
    </g>
   </g>
   <g id="patch_14">
    <path d="M 407.808 128.512826 
Q 407.808 131.2046 407.808 132.219322 
" style="fill: none; stroke: #7c3aed; stroke-width: 1.5; stroke-linecap: round"/>
    <path d="M 409.808 128.219322 
L 407.808 132.219322 
L 405.808 128.219322 
" style="fill: none; stroke: #7c3aed; stroke-width: 1.5; stroke-linecap: round"/>
   </g>
   <g id="text_7">
    <!-- Multi-Head Cross-Attention -->
    <g style="fill: #4c1d95" transform="translate(352.800383 166.264984) scale(0.085 -0.085)">
     <defs>
      <path id="Arial-BoldMT-4d" d="M 453 0 
L 453 4581 
L 1838 4581 
L 2669 1456 
L 3491 4581 
L 4878 4581 
L 4878 0 
L 4019 0 
L 4019 3606 
L 3109 0 
L 2219 0 
L 1313 3606 
L 1313 0 
L 453 0 
z
" transform="scale(0.015625)"/>
      <path id="Arial-BoldMT-48" d="M 469 0 
L 469 4581 
L 1394 4581 
L 1394 2778 
L 3206 2778 
L 3206 4581 
L 4131 4581 
L 4131 0 
L 3206 0 
L 3206 2003 
L 1394 2003 
L 1394 0 
L 469 0 
z
" transform="scale(0.015625)"/>
     </defs>
     <use xlink:href="#Arial-BoldMT-4d"/>
     <use xlink:href="#Arial-BoldMT-75" transform="translate(83.300781 0)"/>
     <use xlink:href="#Arial-BoldMT-6c" transform="translate(144.384766 0)"/>
     <use xlink:href="#Arial-BoldMT-74" transform="translate(172.167969 0)"/>
     <use xlink:href="#Arial-BoldMT-69" transform="translate(205.46875 0)"/>
     <use xlink:href="#Arial-BoldMT-2d" transform="translate(233.251953 0)"/>
     <use xlink:href="#Arial-BoldMT-48" transform="translate(266.552734 0)"/>
     <use xlink:href="#Arial-BoldMT-65" transform="translate(338.769531 0)"/>
     <use xlink:href="#Arial-BoldMT-61" transform="translate(394.384766 0)"/>
     <use xlink:href="#Arial-BoldMT-64" transform="translate(450 0)"/>
     <use xlink:href="#Arial-BoldMT-20" transform="translate(511.083984 0)"/>
     <use xlink:href="#Arial-BoldMT-43" transform="translate(538.867188 0)"/>
     <use xlink:href="#Arial-BoldMT-72" transform="translate(611.083984 0)"/>
     <use xlink:href="#Arial-BoldMT-6f" transform="translate(650 0)"/>
     <use xlink:href="#Arial-BoldMT-73" transform="translate(711.083984 0)"/>
     <use xlink:href="#Arial-BoldMT-73" transform="translate(766.699219 0)"/>
     <use xlink:href="#Arial-BoldMT-2d" transform="translate(822.314453 0)"/>
     <use xlink:href="#Arial-BoldMT-41" transform="translate(855.615234 0)"/>
     <use xlink:href="#Arial-BoldMT-74" transform="translate(927.832031 0)"/>
     <use xlink:href="#Arial-BoldMT-74" transform="translate(961.132812 0)"/>
     <use xlink:href="#Arial-BoldMT-65" transform="translate(994.433594 0)"/>
     <use xlink:href="#Arial-BoldMT-6e" transform="translate(1050.048828 0)"/>
     <use xlink:href="#Arial-BoldMT-74" transform="translate(1111.132812 0)"/>
     <use xlink:href="#Arial-BoldMT-69" transform="translate(1144.433594 0)"/>
     <use xlink:href="#Arial-BoldMT-6f" transform="translate(1172.216797 0)"/>
     <use xlink:href="#Arial-BoldMT-6e" transform="translate(1233.300781 0)"/>
    </g>
   </g>
   <g id="patch_15">
    <path d="M 407.808 180.146826 
Q 407.808 182.8386 407.808 183.853322 
" style="fill: none; stroke: #7c3aed; stroke-width: 1.5; stroke-linecap: round"/>
    <path d="M 409.808 179.853322 
L 407.808 183.853322 
L 405.808 179.853322 
" style="fill: none; stroke: #7c3aed; stroke-width: 1.5; stroke-linecap: round"/>
   </g>
   <g id="text_8">
    <!-- Feed-Forward &amp; LayerNorm -->
    <g style="fill: #4c1d95" transform="translate(351.840148 217.895) scale(0.085 -0.085)">
     <defs>
      <path id="Arial-BoldMT-46" d="M 472 0 
L 472 4581 
L 3613 4581 
L 3613 3806 
L 1397 3806 
L 1397 2722 
L 3309 2722 
L 3309 1947 
L 1397 1947 
L 1397 0 
L 472 0 
z
" transform="scale(0.015625)"/>
      <path id="Arial-BoldMT-77" d="M 1078 0 
L 28 3319 
L 881 3319 
L 1503 1144 
L 2075 3319 
L 2922 3319 
L 3475 1144 
L 4109 3319 
L 4975 3319 
L 3909 0 
L 3066 0 
L 2494 2134 
L 1931 0 
L 1078 0 
z
" transform="scale(0.015625)"/>
      <path id="Arial-BoldMT-26" d="M 4519 559 
L 3988 -119 
Q 3597 72 3238 406 
Q 2959 156 2646 37 
Q 2334 -81 1903 -81 
Q 1047 -81 616 400 
Q 281 772 281 1256 
Q 281 1697 543 2048 
Q 806 2400 1328 2659 
Q 1094 2938 975 3189 
Q 856 3441 856 3666 
Q 856 4081 1189 4370 
Q 1522 4659 2138 4659 
Q 2731 4659 3065 4356 
Q 3400 4053 3400 3616 
Q 3400 3338 3234 3088 
Q 3069 2838 2566 2522 
L 3203 1681 
Q 3316 1881 3397 2203 
L 4191 2022 
Q 4072 1600 3984 1404 
Q 3897 1209 3797 1078 
Q 3944 941 4176 777 
Q 4409 613 4519 559 
z
M 2128 3050 
L 2366 3231 
Q 2628 3434 2628 3634 
Q 2628 3803 2501 3922 
Q 2375 4041 2159 4041 
Q 1950 4041 1831 3936 
Q 1713 3831 1713 3694 
Q 1713 3531 1913 3300 
L 2128 3050 
z
M 1784 2097 
Q 1481 1944 1331 1728 
Q 1181 1513 1181 1288 
Q 1181 1003 1367 823 
Q 1553 644 1866 644 
Q 2072 644 2262 725 
Q 2453 806 2678 994 
L 1784 2097 
z
" transform="scale(0.015625)"/>
      <path id="Arial-BoldMT-4c" d="M 491 0 
L 491 4544 
L 1416 4544 
L 1416 772 
L 3716 772 
L 3716 0 
L 491 0 
z
" transform="scale(0.015625)"/>
      <path id="Arial-BoldMT-79" d="M 44 3319 
L 978 3319 
L 1772 963 
L 2547 3319 
L 3456 3319 
L 2284 125 
L 2075 -453 
Q 1959 -744 1854 -897 
Q 1750 -1050 1614 -1145 
Q 1478 -1241 1279 -1294 
Q 1081 -1347 831 -1347 
Q 578 -1347 334 -1294 
L 256 -606 
Q 463 -647 628 -647 
Q 934 -647 1081 -467 
Q 1228 -288 1306 -9 
L 44 3319 
z
" transform="scale(0.015625)"/>
      <path id="Arial-BoldMT-6d" d="M 394 3319 
L 1203 3319 
L 1203 2866 
Q 1638 3394 2238 3394 
Q 2556 3394 2790 3262 
Q 3025 3131 3175 2866 
Q 3394 3131 3647 3262 
Q 3900 3394 4188 3394 
Q 4553 3394 4806 3245 
Q 5059 3097 5184 2809 
Q 5275 2597 5275 2122 
L 5275 0 
L 4397 0 
L 4397 1897 
Q 4397 2391 4306 2534 
Q 4184 2722 3931 2722 
Q 3747 2722 3584 2609 
Q 3422 2497 3350 2280 
Q 3278 2063 3278 1594 
L 3278 0 
L 2400 0 
L 2400 1819 
Q 2400 2303 2353 2443 
Q 2306 2584 2207 2653 
Q 2109 2722 1941 2722 
Q 1738 2722 1575 2612 
Q 1413 2503 1342 2297 
Q 1272 2091 1272 1613 
L 1272 0 
L 394 0 
L 394 3319 
z
" transform="scale(0.015625)"/>
     </defs>
     <use xlink:href="#Arial-BoldMT-46"/>
     <use xlink:href="#Arial-BoldMT-65" transform="translate(61.083984 0)"/>
     <use xlink:href="#Arial-BoldMT-65" transform="translate(116.699219 0)"/>
     <use xlink:href="#Arial-BoldMT-64" transform="translate(172.314453 0)"/>
     <use xlink:href="#Arial-BoldMT-2d" transform="translate(233.398438 0)"/>
     <use xlink:href="#Arial-BoldMT-46" transform="translate(266.699219 0)"/>
     <use xlink:href="#Arial-BoldMT-6f" transform="translate(327.783203 0)"/>
     <use xlink:href="#Arial-BoldMT-72" transform="translate(388.867188 0)"/>
     <use xlink:href="#Arial-BoldMT-77" transform="translate(427.783203 0)"/>
     <use xlink:href="#Arial-BoldMT-61" transform="translate(505.566406 0)"/>
     <use xlink:href="#Arial-BoldMT-72" transform="translate(561.181641 0)"/>
     <use xlink:href="#Arial-BoldMT-64" transform="translate(600.097656 0)"/>
     <use xlink:href="#Arial-BoldMT-20" transform="translate(661.181641 0)"/>
     <use xlink:href="#Arial-BoldMT-26" transform="translate(688.964844 0)"/>
     <use xlink:href="#Arial-BoldMT-20" transform="translate(761.181641 0)"/>
     <use xlink:href="#Arial-BoldMT-4c" transform="translate(788.964844 0)"/>
     <use xlink:href="#Arial-BoldMT-61" transform="translate(850.048828 0)"/>
     <use xlink:href="#Arial-BoldMT-79" transform="translate(905.664062 0)"/>
     <use xlink:href="#Arial-BoldMT-65" transform="translate(961.279297 0)"/>
     <use xlink:href="#Arial-BoldMT-72" transform="translate(1016.894531 0)"/>
     <use xlink:href="#Arial-BoldMT-4e" transform="translate(1055.810547 0)"/>
     <use xlink:href="#Arial-BoldMT-6f" transform="translate(1128.027344 0)"/>
     <use xlink:href="#Arial-BoldMT-72" transform="translate(1189.111328 0)"/>
     <use xlink:href="#Arial-BoldMT-6d" transform="translate(1228.027344 0)"/>
    </g>
   </g>
   <g id="patch_16">
    <path d="M 525.366413 164.061625 
Q 542.62634 164.061625 557.091183 164.061625 
" style="fill: none; stroke: #8b5cf6; stroke-width: 2.5; stroke-linecap: round"/>
    <path d="M 553.091183 162.061625 
L 557.091183 164.061625 
L 553.091183 166.061625 
" style="fill: none; stroke: #8b5cf6; stroke-width: 2.5; stroke-linecap: round"/>
   </g>
   <g id="text_9">
    <!-- Reverse Diffusion -->
    <g style="fill: #78350f" transform="translate(615.279687 77.727031) scale(0.11 -0.11)">
     <defs>
      <path id="Arial-BoldMT-66" d="M 75 3319 
L 563 3319 
L 563 3569 
Q 563 3988 652 4194 
Q 741 4400 980 4529 
Q 1219 4659 1584 4659 
Q 1959 4659 2319 4547 
L 2200 3934 
Q 1991 3984 1797 3984 
Q 1606 3984 1523 3895 
Q 1441 3806 1441 3553 
L 1441 3319 
L 2097 3319 
L 2097 2628 
L 1441 2628 
L 1441 0 
L 563 0 
L 563 2628 
L 75 2628 
L 75 3319 
z
" transform="scale(0.015625)"/>
     </defs>
     <use xlink:href="#Arial-BoldMT-52"/>
     <use xlink:href="#Arial-BoldMT-65" transform="translate(72.216797 0)"/>
     <use xlink:href="#Arial-BoldMT-76" transform="translate(127.832031 0)"/>
     <use xlink:href="#Arial-BoldMT-65" transform="translate(183.447266 0)"/>
     <use xlink:href="#Arial-BoldMT-72" transform="translate(239.0625 0)"/>
     <use xlink:href="#Arial-BoldMT-73" transform="translate(277.978516 0)"/>
     <use xlink:href="#Arial-BoldMT-65" transform="translate(333.59375 0)"/>
     <use xlink:href="#Arial-BoldMT-20" transform="translate(389.208984 0)"/>
     <use xlink:href="#Arial-BoldMT-44" transform="translate(416.992188 0)"/>
     <use xlink:href="#Arial-BoldMT-69" transform="translate(489.208984 0)"/>
     <use xlink:href="#Arial-BoldMT-66" transform="translate(516.992188 0)"/>
     <use xlink:href="#Arial-BoldMT-66" transform="translate(550.292969 0)"/>
     <use xlink:href="#Arial-BoldMT-75" transform="translate(583.59375 0)"/>
     <use xlink:href="#Arial-BoldMT-73" transform="translate(644.677734 0)"/>
     <use xlink:href="#Arial-BoldMT-69" transform="translate(700.292969 0)"/>
     <use xlink:href="#Arial-BoldMT-6f" transform="translate(728.076172 0)"/>
     <use xlink:href="#Arial-BoldMT-6e" transform="translate(789.160156 0)"/>
    </g>
   </g>
   <g id="text_10">
    <!-- Gaussian Noise $\mathbf{x}_T \sim \mathcal{N}(0, I)$ -->
    <g style="fill: #78350f" transform="translate(612.04 114.547625) scale(0.08 -0.08)">
     <defs>
      <path id="ArialMT-75" d="M 2597 0 
L 2597 488 
Q 2209 -75 1544 -75 
Q 1250 -75 995 37 
Q 741 150 617 320 
Q 494 491 444 738 
Q 409 903 409 1263 
L 409 3319 
L 972 3319 
L 972 1478 
Q 972 1038 1006 884 
Q 1059 663 1231 536 
Q 1403 409 1656 409 
Q 1909 409 2131 539 
Q 2353 669 2445 892 
Q 2538 1116 2538 1541 
L 2538 3319 
L 3100 3319 
L 3100 0 
L 2597 0 
z
" transform="scale(0.015625)"/>
      <path id="Cmb10-78" d="M 109 0 
L 109 325 
Q 628 325 678 384 
L 1381 1350 
L 588 2516 
L 141 2516 
L 141 2841 
L 1606 2841 
L 1606 2516 
L 1331 2516 
L 1766 1881 
L 2181 2463 
Q 2181 2491 2072 2503 
Q 1963 2516 1888 2516 
L 1888 2841 
L 3156 2841 
L 3156 2516 
Q 2638 2516 2584 2456 
L 1959 1594 
L 2816 325 
L 3272 325 
L 3272 0 
L 1797 0 
L 1797 325 
L 2075 325 
L 1575 1063 
L 1081 378 
Q 1081 356 1193 340 
Q 1306 325 1381 325 
L 1381 0 
L 109 0 
z
" transform="scale(0.015625)"/>
      <path id="Cmmi10-54" d="M 294 84 
Q 297 100 308 140 
Q 319 181 336 203 
Q 353 225 384 225 
Q 934 225 1113 256 
Q 1284 300 1319 441 
L 2194 3956 
Q 2222 4034 2222 4097 
Q 2222 4147 1997 4147 
L 1625 4147 
Q 1197 4147 964 4015 
Q 731 3884 622 3668 
Q 513 3453 341 2963 
Q 319 2906 275 2906 
L 219 2906 
Q 153 2906 153 2988 
L 609 4313 
Q 622 4372 672 4372 
L 4453 4372 
Q 4519 4372 4519 4288 
L 4306 2963 
Q 4306 2944 4284 2925 
Q 4263 2906 4244 2906 
L 4184 2906 
Q 4122 2906 4122 2988 
Q 4191 3441 4191 3628 
Q 4191 3853 4097 3968 
Q 4003 4084 3853 4115 
Q 3703 4147 3463 4147 
L 3084 4147 
Q 2913 4147 2853 4115 
Q 2794 4084 2753 3928 
L 1875 416 
Q 1872 403 1870 390 
Q 1869 378 1863 359 
Q 1863 278 1959 256 
Q 2125 225 2669 225 
Q 2731 225 2731 141 
Q 2709 50 2696 25 
Q 2684 0 2625 0 
L 359 0 
Q 294 0 294 84 
z
" transform="scale(0.015625)"/>
      <path id="Cmsy10-bb" d="M 447 850 
Q 378 850 359 1013 
L 359 1050 
Q 359 1544 654 1947 
Q 950 2350 1422 2350 
Q 1716 2350 1955 2204 
Q 2194 2059 2516 1768 
Q 2838 1478 3055 1343 
Q 3272 1209 3553 1209 
Q 3806 1209 4006 1346 
Q 4206 1484 4320 1712 
Q 4434 1941 4434 2188 
Q 4453 2350 4525 2350 
Q 4597 2350 4616 2188 
L 4616 2150 
Q 4616 1841 4486 1537 
Q 4356 1234 4115 1042 
Q 3875 850 3553 850 
Q 3259 850 3031 989 
Q 2803 1128 2481 1417 
Q 2159 1706 1931 1848 
Q 1703 1991 1422 1991 
Q 1172 1991 969 1853 
Q 766 1716 652 1487 
Q 538 1259 538 1013 
Q 519 850 447 850 
z
" transform="scale(0.015625)"/>
      <path id="Cmsy10-4e" d="M -184 13 
Q -184 131 -103 322 
Q -22 513 72 513 
Q 84 513 91 506 
Q 294 294 594 294 
Q 763 294 892 598 
Q 1022 903 1147 1306 
Q 1213 1509 1308 1837 
Q 1403 2166 1453 2369 
Q 1497 2538 1558 2827 
Q 1619 3116 1658 3331 
Q 1697 3547 1728 3772 
Q 1759 3997 1784 4244 
Q 1784 4278 1831 4325 
Q 1900 4397 1997 4453 
Q 2088 4494 2181 4513 
L 2234 4513 
Q 2272 4494 2278 4469 
Q 2438 3909 2675 3200 
Q 2891 2544 3044 2125 
Q 3197 1706 3405 1242 
Q 3613 778 3859 384 
Q 4194 1819 4525 2988 
L 4609 3284 
Q 4747 3769 4836 4039 
Q 4925 4309 5063 4525 
Q 5175 4700 5356 4800 
Q 5538 4900 5753 4942 
Q 5969 4984 6203 4984 
Q 6259 4984 6259 4878 
Q 6259 4803 6226 4686 
Q 6194 4569 6137 4478 
Q 6081 4388 6009 4372 
Q 5756 4372 5557 4331 
Q 5359 4291 5197 4184 
Q 5116 4125 5102 4094 
Q 5088 4063 5038 3909 
Q 4956 3684 4872 3366 
L 4788 3078 
Q 4625 2491 4498 2006 
Q 4372 1522 4256 1045 
Q 4141 569 4031 84 
Q 4034 84 4029 92 
Q 4025 100 4025 103 
Q 4025 47 3951 -15 
Q 3878 -78 3783 -120 
Q 3688 -163 3628 -172 
L 3584 -172 
Q 3478 -119 3222 368 
Q 2966 856 2834 1172 
Q 2359 2347 1966 3628 
Q 1916 3319 1759 2648 
Q 1603 1978 1387 1297 
Q 1172 616 914 148 
Q 656 -319 397 -319 
Q 231 -319 23 -225 
Q -184 -131 -184 13 
z
" transform="scale(0.015625)"/>
      <path id="Cmr10-28" d="M 1984 -1588 
Q 1628 -1306 1370 -942 
Q 1113 -578 948 -165 
Q 784 247 703 697 
Q 622 1147 622 1600 
Q 622 2059 703 2509 
Q 784 2959 951 3375 
Q 1119 3791 1378 4153 
Q 1638 4516 1984 4788 
Q 1984 4800 2016 4800 
L 2075 4800 
Q 2094 4800 2109 4783 
Q 2125 4766 2125 4744 
Q 2125 4716 2113 4703 
Q 1800 4397 1592 4047 
Q 1384 3697 1257 3301 
Q 1131 2906 1075 2482 
Q 1019 2059 1019 1600 
Q 1019 -434 2106 -1491 
Q 2125 -1509 2125 -1544 
Q 2125 -1559 2108 -1579 
Q 2091 -1600 2075 -1600 
L 2016 -1600 
Q 1984 -1600 1984 -1588 
z
" transform="scale(0.015625)"/>
      <path id="Cmr10-30" d="M 1600 -141 
Q 816 -141 533 504 
Q 250 1150 250 2041 
Q 250 2597 351 3087 
Q 453 3578 754 3920 
Q 1056 4263 1600 4263 
Q 2022 4263 2290 4056 
Q 2559 3850 2700 3523 
Q 2841 3197 2892 2823 
Q 2944 2450 2944 2041 
Q 2944 1491 2842 1011 
Q 2741 531 2444 195 
Q 2147 -141 1600 -141 
z
M 1600 25 
Q 1956 25 2131 390 
Q 2306 756 2347 1200 
Q 2388 1644 2388 2144 
Q 2388 2625 2347 3031 
Q 2306 3438 2132 3767 
Q 1959 4097 1600 4097 
Q 1238 4097 1063 3765 
Q 888 3434 847 3029 
Q 806 2625 806 2144 
Q 806 1788 823 1472 
Q 841 1156 916 820 
Q 991 484 1158 254 
Q 1325 25 1600 25 
z
" transform="scale(0.015625)"/>
      <path id="Cmmi10-3b" d="M 634 -1153 
Q 634 -1125 659 -1100 
Q 891 -878 1019 -587 
Q 1147 -297 1147 25 
L 1147 103 
Q 1044 0 891 0 
Q 744 0 641 103 
Q 538 206 538 353 
Q 538 503 641 603 
Q 744 703 891 703 
Q 1119 703 1216 492 
Q 1313 281 1313 25 
Q 1313 -331 1170 -651 
Q 1028 -972 769 -1228 
Q 744 -1241 728 -1241 
Q 697 -1241 665 -1212 
Q 634 -1184 634 -1153 
z
" transform="scale(0.015625)"/>
      <path id="Cmmi10-49" d="M 269 0 
Q 206 0 206 84 
Q 231 225 288 225 
Q 666 225 800 250 
Q 947 284 984 441 
L 1863 3956 
Q 1875 4019 1875 4038 
Q 1875 4078 1854 4095 
Q 1834 4113 1791 4122 
Q 1663 4147 1306 4147 
Q 1241 4147 1241 4231 
Q 1263 4313 1275 4342 
Q 1288 4372 1350 4372 
L 3138 4372 
Q 3200 4372 3200 4288 
Q 3197 4272 3187 4234 
Q 3178 4197 3162 4172 
Q 3147 4147 3116 4147 
Q 2741 4147 2597 4122 
Q 2456 4088 2419 3928 
L 1544 416 
Q 1528 338 1528 331 
Q 1528 316 1533 302 
Q 1538 288 1552 277 
Q 1566 266 1580 261 
Q 1594 256 1613 250 
Q 1734 225 2100 225 
Q 2163 225 2163 141 
Q 2141 50 2128 25 
Q 2116 0 2053 0 
L 269 0 
z
" transform="scale(0.015625)"/>
      <path id="Cmr10-29" d="M 416 -1600 
Q 359 -1600 359 -1544 
Q 359 -1516 372 -1503 
Q 1466 -434 1466 1600 
Q 1466 3634 384 4691 
Q 359 4706 359 4744 
Q 359 4766 376 4783 
Q 394 4800 416 4800 
L 475 4800 
Q 494 4800 506 4788 
Q 966 4425 1272 3906 
Q 1578 3388 1720 2800 
Q 1863 2213 1863 1600 
Q 1863 1147 1786 708 
Q 1709 269 1542 -157 
Q 1375 -584 1119 -945 
Q 863 -1306 506 -1588 
Q 494 -1600 475 -1600 
L 416 -1600 
z
" transform="scale(0.015625)"/>
     </defs>
     <use xlink:href="#ArialMT-47" transform="translate(0 0.125)"/>
     <use xlink:href="#ArialMT-61" transform="translate(77.783203 0.125)"/>
     <use xlink:href="#ArialMT-75" transform="translate(133.398438 0.125)"/>
     <use xlink:href="#ArialMT-73" transform="translate(189.013672 0.125)"/>
     <use xlink:href="#ArialMT-73" transform="translate(239.013672 0.125)"/>
     <use xlink:href="#ArialMT-69" transform="translate(289.013672 0.125)"/>
     <use xlink:href="#ArialMT-61" transform="translate(311.230469 0.125)"/>
     <use xlink:href="#ArialMT-6e" transform="translate(366.845703 0.125)"/>
     <use xlink:href="#ArialMT-20" transform="translate(422.460938 0.125)"/>
     <use xlink:href="#ArialMT-4e" transform="translate(450.244141 0.125)"/>
     <use xlink:href="#ArialMT-6f" transform="translate(522.460938 0.125)"/>
     <use xlink:href="#ArialMT-69" transform="translate(578.076172 0.125)"/>
     <use xlink:href="#ArialMT-73" transform="translate(600.292969 0.125)"/>
     <use xlink:href="#ArialMT-65" transform="translate(650.292969 0.125)"/>
     <use xlink:href="#ArialMT-20" transform="translate(705.908203 0.125)"/>
     <use xlink:href="#Cmb10-78" transform="translate(733.691406 0.125)"/>
     <use xlink:href="#Cmmi10-54" transform="translate(790.841094 -16.88125) scale(0.7)"/>
     <use xlink:href="#Cmsy10-bb" transform="translate(855.655937 0.125)"/>
     <use xlink:href="#Cmsy10-4e" transform="translate(950.900078 0.125)"/>
     <use xlink:href="#Cmr10-28" transform="translate(1032.8825 0.125)"/>
     <use xlink:href="#Cmr10-30" transform="translate(1071.700859 0.125)"/>
     <use xlink:href="#Cmmi10-3b" transform="translate(1121.700859 0.125)"/>
     <use xlink:href="#Cmmi10-49" transform="translate(1166.945 0.125)"/>
     <use xlink:href="#Cmr10-29" transform="translate(1210.841484 0.125)"/>
    </g>
   </g>
   <g id="patch_17">
    <path d="M 662.04 128.512826 
Q 662.04 131.2046 662.04 132.219322 
" style="fill: none; stroke: #b45309; stroke-width: 1.5; stroke-linecap: round"/>
    <path d="M 664.04 128.219322 
L 662.04 132.219322 
L 660.04 128.219322 
" style="fill: none; stroke: #b45309; stroke-width: 1.5; stroke-linecap: round"/>
   </g>
   <g id="text_11">
    <!-- Guided Step $\mathbf{x}_{t-1} | \mathbf{x}_t, \mathcal{E}_k$ -->
    <g style="fill: #78350f" transform="translate(620.08 166.061625) scale(0.08 -0.08)">
     <defs>
      <path id="Cmmi10-74" d="M 397 519 
Q 397 613 416 697 
L 878 2534 
L 206 2534 
Q 141 2534 141 2619 
Q 166 2759 225 2759 
L 934 2759 
L 1191 3803 
Q 1216 3888 1291 3947 
Q 1366 4006 1459 4006 
Q 1541 4006 1595 3957 
Q 1650 3909 1650 3828 
Q 1650 3809 1648 3798 
Q 1647 3788 1644 3775 
L 1388 2759 
L 2047 2759 
Q 2113 2759 2113 2675 
Q 2109 2659 2100 2621 
Q 2091 2584 2075 2559 
Q 2059 2534 2028 2534 
L 1331 2534 
L 872 684 
Q 825 503 825 372 
Q 825 97 1013 97 
Q 1294 97 1511 361 
Q 1728 625 1844 941 
Q 1869 978 1894 978 
L 1972 978 
Q 1997 978 2012 961 
Q 2028 944 2028 922 
Q 2028 909 2022 903 
Q 1881 516 1612 222 
Q 1344 -72 997 -72 
Q 744 -72 570 93 
Q 397 259 397 519 
z
" transform="scale(0.015625)"/>
      <path id="Cmsy10-a1" d="M 653 1472 
Q 600 1472 565 1512 
Q 531 1553 531 1600 
Q 531 1647 565 1687 
Q 600 1728 653 1728 
L 4325 1728 
Q 4375 1728 4408 1687 
Q 4441 1647 4441 1600 
Q 4441 1553 4408 1512 
Q 4375 1472 4325 1472 
L 653 1472 
z
" transform="scale(0.015625)"/>
      <path id="Cmr10-31" d="M 594 0 
L 594 225 
Q 1394 225 1394 428 
L 1394 3788 
Q 1063 3628 556 3628 
L 556 3853 
Q 1341 3853 1741 4263 
L 1831 4263 
Q 1853 4263 1873 4245 
Q 1894 4228 1894 4206 
L 1894 428 
Q 1894 225 2694 225 
L 2694 0 
L 594 0 
z
" transform="scale(0.015625)"/>
      <path id="Cmsy10-6a" d="M 763 -1484 
L 763 4684 
Q 763 4734 800 4767 
Q 838 4800 891 4800 
Q 938 4800 978 4767 
Q 1019 4734 1019 4684 
L 1019 -1484 
Q 1019 -1534 978 -1567 
Q 938 -1600 891 -1600 
Q 838 -1600 800 -1567 
Q 763 -1534 763 -1484 
z
" transform="scale(0.015625)"/>
     </defs>
     <use xlink:href="#ArialMT-47"/>
     <use xlink:href="#ArialMT-75" transform="translate(77.783203 0)"/>
     <use xlink:href="#ArialMT-69" transform="translate(133.398438 0)"/>
     <use xlink:href="#ArialMT-64" transform="translate(155.615234 0)"/>
     <use xlink:href="#ArialMT-65" transform="translate(211.230469 0)"/>
     <use xlink:href="#ArialMT-64" transform="translate(266.845703 0)"/>
     <use xlink:href="#ArialMT-20" transform="translate(322.460938 0)"/>
     <use xlink:href="#ArialMT-53" transform="translate(350.244141 0)"/>
     <use xlink:href="#ArialMT-74" transform="translate(416.943359 0)"/>
     <use xlink:href="#ArialMT-65" transform="translate(444.726562 0)"/>
     <use xlink:href="#ArialMT-70" transform="translate(500.341797 0)"/>
     <use xlink:href="#ArialMT-20" transform="translate(555.957031 0)"/>
     <use xlink:href="#Cmb10-78" transform="translate(583.740234 0)"/>
     <use xlink:href="#Cmmi10-74" transform="translate(640.889922 -17.00625) scale(0.7)"/>
     <use xlink:href="#Cmsy10-a1" transform="translate(678.439727 -17.00625) scale(0.7)"/>
     <use xlink:href="#Cmr10-31" transform="translate(745.110625 -17.00625) scale(0.7)"/>
     <use xlink:href="#Cmsy10-6a" transform="translate(786.487969 0)"/>
     <use xlink:href="#Cmb10-78" transform="translate(814.173516 0)"/>
     <use xlink:href="#Cmmi10-74" transform="translate(871.323203 -17.00625) scale(0.7)"/>
     <use xlink:href="#Cmmi10-3b" transform="translate(902.959336 0)"/>
     <use xlink:href="#Cmsy10-45" transform="translate(948.203477 0)"/>
     <use xlink:href="#Cmmi10-6b" transform="translate(1005.353164 -17.00625) scale(0.7)"/>
    </g>
   </g>
   <g id="patch_18">
    <path d="M 662.04 180.146826 
Q 662.04 182.8386 662.04 183.853322 
" style="fill: none; stroke: #b45309; stroke-width: 1.5; stroke-linecap: round"/>
    <path d="M 664.04 179.853322 
L 662.04 183.853322 
L 660.04 179.853322 
" style="fill: none; stroke: #b45309; stroke-width: 1.5; stroke-linecap: round"/>
   </g>
   <g id="text_12">
    <!-- Regularized Floorplan $\mathbf{x}_0$ -->
    <g style="fill: #78350f" transform="translate(617.84 217.695625) scale(0.08 -0.08)">
     <defs>
      <path id="ArialMT-52" d="M 503 0 
L 503 4581 
L 2534 4581 
Q 3147 4581 3465 4457 
Q 3784 4334 3975 4021 
Q 4166 3709 4166 3331 
Q 4166 2844 3850 2509 
Q 3534 2175 2875 2084 
Q 3116 1969 3241 1856 
Q 3506 1613 3744 1247 
L 4541 0 
L 3778 0 
L 3172 953 
Q 2906 1366 2734 1584 
Q 2563 1803 2427 1890 
Q 2291 1978 2150 2013 
Q 2047 2034 1813 2034 
L 1109 2034 
L 1109 0 
L 503 0 
z
M 1109 2559 
L 2413 2559 
Q 2828 2559 3062 2645 
Q 3297 2731 3419 2920 
Q 3541 3109 3541 3331 
Q 3541 3656 3305 3865 
Q 3069 4075 2559 4075 
L 1109 4075 
L 1109 2559 
z
" transform="scale(0.015625)"/>
      <path id="ArialMT-67" d="M 319 -275 
L 866 -356 
Q 900 -609 1056 -725 
Q 1266 -881 1628 -881 
Q 2019 -881 2231 -725 
Q 2444 -569 2519 -288 
Q 2563 -116 2559 434 
Q 2191 0 1641 0 
Q 956 0 581 494 
Q 206 988 206 1678 
Q 206 2153 378 2554 
Q 550 2956 876 3175 
Q 1203 3394 1644 3394 
Q 2231 3394 2613 2919 
L 2613 3319 
L 3131 3319 
L 3131 450 
Q 3131 -325 2973 -648 
Q 2816 -972 2473 -1159 
Q 2131 -1347 1631 -1347 
Q 1038 -1347 672 -1080 
Q 306 -813 319 -275 
z
M 784 1719 
Q 784 1066 1043 766 
Q 1303 466 1694 466 
Q 2081 466 2343 764 
Q 2606 1063 2606 1700 
Q 2606 2309 2336 2618 
Q 2066 2928 1684 2928 
Q 1309 2928 1046 2623 
Q 784 2319 784 1719 
z
" transform="scale(0.015625)"/>
      <path id="ArialMT-6c" d="M 409 0 
L 409 4581 
L 972 4581 
L 972 0 
L 409 0 
z
" transform="scale(0.015625)"/>
      <path id="ArialMT-7a" d="M 125 0 
L 125 456 
L 2238 2881 
Q 1878 2863 1603 2863 
L 250 2863 
L 250 3319 
L 2963 3319 
L 2963 2947 
L 1166 841 
L 819 456 
Q 1197 484 1528 484 
L 3063 484 
L 3063 0 
L 125 0 
z
" transform="scale(0.015625)"/>
     </defs>
     <use xlink:href="#ArialMT-52" transform="translate(0 0.421875)"/>
     <use xlink:href="#ArialMT-65" transform="translate(72.216797 0.421875)"/>
     <use xlink:href="#ArialMT-67" transform="translate(127.832031 0.421875)"/>
     <use xlink:href="#ArialMT-75" transform="translate(183.447266 0.421875)"/>
     <use xlink:href="#ArialMT-6c" transform="translate(239.0625 0.421875)"/>
     <use xlink:href="#ArialMT-61" transform="translate(261.279297 0.421875)"/>
     <use xlink:href="#ArialMT-72" transform="translate(316.894531 0.421875)"/>
     <use xlink:href="#ArialMT-69" transform="translate(350.195312 0.421875)"/>
     <use xlink:href="#ArialMT-7a" transform="translate(372.412109 0.421875)"/>
     <use xlink:href="#ArialMT-65" transform="translate(422.412109 0.421875)"/>
     <use xlink:href="#ArialMT-64" transform="translate(478.027344 0.421875)"/>
     <use xlink:href="#ArialMT-20" transform="translate(533.642578 0.421875)"/>
     <use xlink:href="#ArialMT-46" transform="translate(561.425781 0.421875)"/>
     <use xlink:href="#ArialMT-6c" transform="translate(622.509766 0.421875)"/>
     <use xlink:href="#ArialMT-6f" transform="translate(644.726562 0.421875)"/>
     <use xlink:href="#ArialMT-6f" transform="translate(700.341797 0.421875)"/>
     <use xlink:href="#ArialMT-72" transform="translate(755.957031 0.421875)"/>
     <use xlink:href="#ArialMT-70" transform="translate(789.257812 0.421875)"/>
     <use xlink:href="#ArialMT-6c" transform="translate(844.873047 0.421875)"/>
     <use xlink:href="#ArialMT-61" transform="translate(867.089844 0.421875)"/>
     <use xlink:href="#ArialMT-6e" transform="translate(922.705078 0.421875)"/>
     <use xlink:href="#ArialMT-20" transform="translate(978.320312 0.421875)"/>
     <use xlink:href="#Cmb10-78" transform="translate(1006.103516 0.421875)"/>
     <use xlink:href="#Cmr10-30" transform="translate(1063.253203 -16.584375) scale(0.7)"/>
    </g>
   </g>
   <g id="text_13">
    <!-- Figure 2: FloorGen System Model — Dual Index Retrieval and Cross-Attention Conditioning -->
    <g transform="translate(132.061875 15.935625) scale(0.12 -0.12)">
     <defs>
      <path id="Arial-BoldMT-32" d="M 3238 816 
L 3238 0 
L 159 0 
Q 209 463 459 877 
Q 709 1291 1447 1975 
Q 2041 2528 2175 2725 
Q 2356 2997 2356 3263 
Q 2356 3556 2198 3714 
Q 2041 3872 1763 3872 
Q 1488 3872 1325 3706 
Q 1163 3541 1138 3156 
L 263 3244 
Q 341 3969 753 4284 
Q 1166 4600 1784 4600 
Q 2463 4600 2850 4234 
Q 3238 3869 3238 3325 
Q 3238 3016 3127 2736 
Q 3016 2456 2775 2150 
Q 2616 1947 2200 1565 
Q 1784 1184 1673 1059 
Q 1563 934 1494 816 
L 3238 816 
z
" transform="scale(0.015625)"/>
      <path id="Arial-BoldMT-3a" d="M 628 2441 
L 628 3319 
L 1506 3319 
L 1506 2441 
L 628 2441 
z
M 628 0 
L 628 878 
L 1506 878 
L 1506 0 
L 628 0 
z
" transform="scale(0.015625)"/>
      <path id="Arial-BoldMT-53" d="M 231 1491 
L 1131 1578 
Q 1213 1125 1461 912 
Q 1709 700 2131 700 
Q 2578 700 2804 889 
Q 3031 1078 3031 1331 
Q 3031 1494 2936 1608 
Q 2841 1722 2603 1806 
Q 2441 1863 1863 2006 
Q 1119 2191 819 2459 
Q 397 2838 397 3381 
Q 397 3731 595 4036 
Q 794 4341 1167 4500 
Q 1541 4659 2069 4659 
Q 2931 4659 3367 4281 
Q 3803 3903 3825 3272 
L 2900 3231 
Q 2841 3584 2645 3739 
Q 2450 3894 2059 3894 
Q 1656 3894 1428 3728 
Q 1281 3622 1281 3444 
Q 1281 3281 1419 3166 
Q 1594 3019 2269 2859 
Q 2944 2700 3267 2529 
Q 3591 2359 3773 2064 
Q 3956 1769 3956 1334 
Q 3956 941 3737 597 
Q 3519 253 3119 86 
Q 2719 -81 2122 -81 
Q 1253 -81 787 320 
Q 322 722 231 1491 
z
" transform="scale(0.015625)"/>
      <path id="Arial-BoldMT-2014" d="M 0 1331 
L 0 1988 
L 6400 1988 
L 6400 1331 
L 0 1331 
z
" transform="scale(0.015625)"/>
     </defs>
     <use xlink:href="#Arial-BoldMT-46"/>
     <use xlink:href="#Arial-BoldMT-69" transform="translate(61.083984 0)"/>
     <use xlink:href="#Arial-BoldMT-67" transform="translate(88.867188 0)"/>
     <use xlink:href="#Arial-BoldMT-75" transform="translate(149.951172 0)"/>
     <use xlink:href="#Arial-BoldMT-72" transform="translate(211.035156 0)"/>
     <use xlink:href="#Arial-BoldMT-65" transform="translate(249.951172 0)"/>
     <use xlink:href="#Arial-BoldMT-20" transform="translate(305.566406 0)"/>
     <use xlink:href="#Arial-BoldMT-32" transform="translate(333.349609 0)"/>
     <use xlink:href="#Arial-BoldMT-3a" transform="translate(388.964844 0)"/>
     <use xlink:href="#Arial-BoldMT-20" transform="translate(422.265625 0)"/>
     <use xlink:href="#Arial-BoldMT-46" transform="translate(450.048828 0)"/>
     <use xlink:href="#Arial-BoldMT-6c" transform="translate(511.132812 0)"/>
     <use xlink:href="#Arial-BoldMT-6f" transform="translate(538.916016 0)"/>
     <use xlink:href="#Arial-BoldMT-6f" transform="translate(600 0)"/>
     <use xlink:href="#Arial-BoldMT-72" transform="translate(661.083984 0)"/>
     <use xlink:href="#Arial-BoldMT-47" transform="translate(700 0)"/>
     <use xlink:href="#Arial-BoldMT-65" transform="translate(777.783203 0)"/>
     <use xlink:href="#Arial-BoldMT-6e" transform="translate(833.398438 0)"/>
     <use xlink:href="#Arial-BoldMT-20" transform="translate(894.482422 0)"/>
     <use xlink:href="#Arial-BoldMT-53" transform="translate(922.265625 0)"/>
     <use xlink:href="#Arial-BoldMT-79" transform="translate(988.964844 0)"/>
     <use xlink:href="#Arial-BoldMT-73" transform="translate(1044.580078 0)"/>
     <use xlink:href="#Arial-BoldMT-74" transform="translate(1100.195312 0)"/>
     <use xlink:href="#Arial-BoldMT-65" transform="translate(1133.496094 0)"/>
     <use xlink:href="#Arial-BoldMT-6d" transform="translate(1189.111328 0)"/>
     <use xlink:href="#Arial-BoldMT-20" transform="translate(1278.027344 0)"/>
     <use xlink:href="#Arial-BoldMT-4d" transform="translate(1305.810547 0)"/>
     <use xlink:href="#Arial-BoldMT-6f" transform="translate(1389.111328 0)"/>
     <use xlink:href="#Arial-BoldMT-64" transform="translate(1450.195312 0)"/>
     <use xlink:href="#Arial-BoldMT-65" transform="translate(1511.279297 0)"/>
     <use xlink:href="#Arial-BoldMT-6c" transform="translate(1566.894531 0)"/>
     <use xlink:href="#Arial-BoldMT-20" transform="translate(1594.677734 0)"/>
     <use xlink:href="#Arial-BoldMT-2014" transform="translate(1622.460938 0)"/>
     <use xlink:href="#Arial-BoldMT-20" transform="translate(1722.460938 0)"/>
     <use xlink:href="#Arial-BoldMT-44" transform="translate(1750.244141 0)"/>
     <use xlink:href="#Arial-BoldMT-75" transform="translate(1822.460938 0)"/>
     <use xlink:href="#Arial-BoldMT-61" transform="translate(1883.544922 0)"/>
     <use xlink:href="#Arial-BoldMT-6c" transform="translate(1939.160156 0)"/>
     <use xlink:href="#Arial-BoldMT-20" transform="translate(1966.943359 0)"/>
     <use xlink:href="#Arial-BoldMT-49" transform="translate(1994.726562 0)"/>
     <use xlink:href="#Arial-BoldMT-6e" transform="translate(2022.509766 0)"/>
     <use xlink:href="#Arial-BoldMT-64" transform="translate(2083.59375 0)"/>
     <use xlink:href="#Arial-BoldMT-65" transform="translate(2144.677734 0)"/>
     <use xlink:href="#Arial-BoldMT-78" transform="translate(2200.292969 0)"/>
     <use xlink:href="#Arial-BoldMT-20" transform="translate(2255.908203 0)"/>
     <use xlink:href="#Arial-BoldMT-52" transform="translate(2283.691406 0)"/>
     <use xlink:href="#Arial-BoldMT-65" transform="translate(2355.908203 0)"/>
     <use xlink:href="#Arial-BoldMT-74" transform="translate(2411.523438 0)"/>
     <use xlink:href="#Arial-BoldMT-72" transform="translate(2444.824219 0)"/>
     <use xlink:href="#Arial-BoldMT-69" transform="translate(2483.740234 0)"/>
     <use xlink:href="#Arial-BoldMT-65" transform="translate(2511.523438 0)"/>
     <use xlink:href="#Arial-BoldMT-76" transform="translate(2567.138672 0)"/>
     <use xlink:href="#Arial-BoldMT-61" transform="translate(2622.753906 0)"/>
     <use xlink:href="#Arial-BoldMT-6c" transform="translate(2678.369141 0)"/>
     <use xlink:href="#Arial-BoldMT-20" transform="translate(2706.152344 0)"/>
     <use xlink:href="#Arial-BoldMT-61" transform="translate(2733.935547 0)"/>
     <use xlink:href="#Arial-BoldMT-6e" transform="translate(2789.550781 0)"/>
     <use xlink:href="#Arial-BoldMT-64" transform="translate(2850.634766 0)"/>
     <use xlink:href="#Arial-BoldMT-20" transform="translate(2911.71875 0)"/>
     <use xlink:href="#Arial-BoldMT-43" transform="translate(2939.501953 0)"/>
     <use xlink:href="#Arial-BoldMT-72" transform="translate(3011.71875 0)"/>
     <use xlink:href="#Arial-BoldMT-6f" transform="translate(3050.634766 0)"/>
     <use xlink:href="#Arial-BoldMT-73" transform="translate(3111.71875 0)"/>
     <use xlink:href="#Arial-BoldMT-73" transform="translate(3167.333984 0)"/>
     <use xlink:href="#Arial-BoldMT-2d" transform="translate(3222.949219 0)"/>
     <use xlink:href="#Arial-BoldMT-41" transform="translate(3256.25 0)"/>
     <use xlink:href="#Arial-BoldMT-74" transform="translate(3328.466797 0)"/>
     <use xlink:href="#Arial-BoldMT-74" transform="translate(3361.767578 0)"/>
     <use xlink:href="#Arial-BoldMT-65" transform="translate(3395.068359 0)"/>
     <use xlink:href="#Arial-BoldMT-6e" transform="translate(3450.683594 0)"/>
     <use xlink:href="#Arial-BoldMT-74" transform="translate(3511.767578 0)"/>
     <use xlink:href="#Arial-BoldMT-69" transform="translate(3545.068359 0)"/>
     <use xlink:href="#Arial-BoldMT-6f" transform="translate(3572.851562 0)"/>
     <use xlink:href="#Arial-BoldMT-6e" transform="translate(3633.935547 0)"/>
     <use xlink:href="#Arial-BoldMT-20" transform="translate(3695.019531 0)"/>
     <use xlink:href="#Arial-BoldMT-43" transform="translate(3722.802734 0)"/>
     <use xlink:href="#Arial-BoldMT-6f" transform="translate(3795.019531 0)"/>
     <use xlink:href="#Arial-BoldMT-6e" transform="translate(3856.103516 0)"/>
     <use xlink:href="#Arial-BoldMT-64" transform="translate(3917.1875 0)"/>
     <use xlink:href="#Arial-BoldMT-69" transform="translate(3978.271484 0)"/>
     <use xlink:href="#Arial-BoldMT-74" transform="translate(4006.054688 0)"/>
     <use xlink:href="#Arial-BoldMT-69" transform="translate(4039.355469 0)"/>
     <use xlink:href="#Arial-BoldMT-6f" transform="translate(4067.138672 0)"/>
     <use xlink:href="#Arial-BoldMT-6e" transform="translate(4128.222656 0)"/>
     <use xlink:href="#Arial-BoldMT-69" transform="translate(4189.306641 0)"/>
     <use xlink:href="#Arial-BoldMT-6e" transform="translate(4217.089844 0)"/>
     <use xlink:href="#Arial-BoldMT-67" transform="translate(4278.173828 0)"/>
    </g>
   </g>
  </g>
 </g>
 <defs>
  <clipPath id="p95d057f4b2">
   <rect x="7.2" y="27.935625" width="770.4" height="281.64"/>
  </clipPath>
 </defs>
</svg>
